0
SECTION
2
HEADER
9
$INSUNITS
70
4
9
$ACADVER
1
AC1014
9
$HANDSEED
5
FFFF
0
ENDSEC
0
SECTION
2
TABLES
0
TABLE
2
VPORT
5
8
100
AcDbSymbolTable
0
ENDTAB
0
TABLE
2
LTYPE
5
5
100
AcDbSymbolTable
0
LTYPE
5
14
100
AcDbSymbolTableRecord
100
AcDbLinetypeTableRecord
2
BYBLOCK
70
0
0
LTYPE
5
15
100
AcDbSymbolTableRecord
100
AcDbLinetypeTableRecord
2
BYLAYER
70
0
0
ENDTAB
0
TABLE
2
LAYER
5
2
100
AcDbSymbolTable
70
2
0
LAYER
5
50
100
AcDbSymbolTableRecord
100
AcDbLayerTableRecord
2
0
70
0
6
CONTINUOUS
0
ENDTAB
0
TABLE
2
STYLE
5
3
100
AcDbSymbolTable
70
1
0
STYLE
5
11
100
AcDbSymbolTableRecord
100
AcDbTextStyleTableRecord
2
STANDARD
70
0
0
ENDTAB
0
TABLE
2
VIEW
5
6
100
AcDbSymbolTable
70
0
0
ENDTAB
0
TABLE
2
UCS
5
7
100
AcDbSymbolTable
70
0
0
ENDTAB
0
TABLE
2
APPID
5
9
100
AcDbSymbolTable
70
2
0
APPID
5
12
100
AcDbSymbolTableRecord
100
AcDbRegAppTableRecord
2
ACAD
70
0
0
ENDTAB
0
TABLE
2
DIMSTYLE
5
A
100
AcDbSymbolTable
70
1
0
ENDTAB
0
TABLE
2
BLOCK_RECORD
5
1
100
AcDbSymbolTable
70
1
0
BLOCK_RECORD
5
1F
100
AcDbSymbolTableRecord
100
AcDbBlockTableRecord
2
*MODEL_SPACE
0
BLOCK_RECORD
5
1B
100
AcDbSymbolTableRecord
100
AcDbBlockTableRecord
2
*PAPER_SPACE
0
ENDTAB
0
ENDSEC
0
SECTION
2
BLOCKS
0
BLOCK
5
20
100
AcDbEntity
100
AcDbBlockBegin
2
*MODEL_SPACE
0
ENDBLK
5
21
100
AcDbEntity
100
AcDbBlockEnd
0
BLOCK
5
1C
100
AcDbEntity
100
AcDbBlockBegin
2
*PAPER_SPACE
0
ENDBLK
5
1D
100
AcDbEntity
100
AcDbBlockEnd
0
ENDSEC
0
SECTION
2
ENTITIES
0
LWPOLYLINE
5
100
100
AcDbEntity
8
0
100
AcDbPolyline
90
4
70
1
43
0.0
10
-302
20
1590
10
-302
20
1330
42
0.99999999999999989
10
-298
20
1330
10
-298
20
1590
42
0.99999999999999989
0
LWPOLYLINE
5
101
100
AcDbEntity
8
0
100
AcDbPolyline
90
4
70
1
43
0.0
10
28
20
1590
10
28
20
1330
42
0.99999999999999989
10
32
20
1330
10
32
20
1590
42
0.99999999999999989
0
LWPOLYLINE
5
102
100
AcDbEntity
8
0
100
AcDbPolyline
90
14
70
1
43
0.0
10
54.333190823215617
20
1603.7425145690215
10
54.333190823215617
20
1311.7425146882308
10
-36.807170599104211
20
1311.7425146882308
10
-36.807170599104211
20
1262.1505415397266
10
-236.5070577069759
20
1262.1505415397266
10
-236.5070577069759
20
1310.9413380466167
10
-328.77288084588565
20
1310.9413380466167
10
-328.77288084588565
20
1603.7425145690215
10
-266.66681163547599
20
1603.7425145690215
10
-266.66681163547599
20
1553.7425145690215
42
0.41421356237309553
10
-246.66681163547594
20
1533.7425145690215
10
-26.666811635475977
20
1533.7425145690215
42
0.41421356237309509
10
-6.6668116354759732
20
1553.7425145690215
10
-6.6668116354759732
20
1603.7425145690215
0
LWPOLYLINE
5
103
100
AcDbEntity
8
0
100
AcDbPolyline
90
4
70
1
43
0.0
10
-220
20
1368
10
-50
20
1368
42
0.99999999999999989
10
-50
20
1372
10
-220
20
1372
42
0.99999999999999989
0
LWPOLYLINE
5
104
100
AcDbEntity
8
0
100
AcDbPolyline
90
4
70
1
43
0.0
10
-50
20
1512
10
-220
20
1512
42
0.99999999999999989
10
-220
20
1508
10
-50
20
1508
42
0.99999999999999989
0
LWPOLYLINE
5
105
100
AcDbEntity
8
0
100
AcDbPolyline
90
4
70
1
43
0.0
10
-220
20
1473
10
-50
20
1473
42
0.99999999999999989
10
-50
20
1477
10
-220
20
1477
42
0.99999999999999989
0
LWPOLYLINE
5
106
100
AcDbEntity
8
0
100
AcDbPolyline
90
4
70
1
43
0.0
10
-220
20
1403
10
-50
20
1403
42
0.99999999999999989
10
-50
20
1407
10
-220
20
1407
42
0.99999999999999989
0
CIRCLE
5
107
100
AcDbEntity
8
0
100
AcDbCircle
10
-270
20
1330
30
0
40
1.9999999999999929
210
0
220
-0
230
1
0
LWPOLYLINE
5
108
100
AcDbEntity
8
0
100
AcDbPolyline
90
4
70
1
43
0.0
10
-220
20
1438
10
-50
20
1438
42
0.99999999999999989
10
-50
20
1442
10
-220
20
1442
42
0.99999999999999989
0
LWPOLYLINE
5
109
100
AcDbEntity
8
0
100
AcDbPolyline
90
4
70
1
43
0.0
10
8
20
1590
10
8
20
1330
42
0.99999999999999989
10
12
20
1330
10
12
20
1590
42
0.99999999999999989
0
CIRCLE
5
110
100
AcDbEntity
8
0
100
AcDbCircle
10
-222.75027160449713
20
1283.2425145690215
30
0
40
1.5000000000000002
210
9.748043658958791e-133
220
3.974780272298893e-83
230
1
0
CIRCLE
5
111
100
AcDbEntity
8
0
100
AcDbCircle
10
-178.75027160449713
20
1337.2425145690215
30
0
40
1.5000000000000002
210
9.748043658958791e-133
220
3.974780272298893e-83
230
1
0
CIRCLE
5
112
100
AcDbEntity
8
0
100
AcDbCircle
10
-153.61576637815662
20
1288.7425145690215
30
0
40
1.5000000000000002
210
9.748043658958791e-133
220
3.974780272298893e-83
230
1
0
CIRCLE
5
113
100
AcDbEntity
8
0
100
AcDbCircle
10
-117.61576637815664
20
1340.7425145690215
30
0
40
1.5000000000000002
210
9.748043658958791e-133
220
3.974780272298893e-83
230
1
0
CIRCLE
5
114
100
AcDbEntity
8
0
100
AcDbCircle
10
-61.71681163547597
20
1387.7425145690218
30
0
40
1.5000000000000002
210
9.748043658958791e-133
220
3.974780272298893e-83
230
1
0
CIRCLE
5
115
100
AcDbEntity
8
0
100
AcDbCircle
10
-61.71681163547597
20
1322.7425145690218
30
0
40
1.5000000000000002
210
9.748043658958791e-133
220
3.974780272298893e-83
230
1
0
CIRCLE
5
116
100
AcDbEntity
8
0
100
AcDbCircle
10
-153.61576637815662
20
1340.7425145690215
30
0
40
1.5000000000000002
210
9.748043658958791e-133
220
3.974780272298893e-83
230
1
0
CIRCLE
5
117
100
AcDbEntity
8
0
100
AcDbCircle
10
-117.61576637815664
20
1288.7425145690215
30
0
40
1.5000000000000002
210
9.748043658958791e-133
220
3.974780272298893e-83
230
1
0
CIRCLE
5
118
100
AcDbEntity
8
0
100
AcDbCircle
10
-222.75027160449713
20
1337.2425145690215
30
0
40
1.5000000000000002
210
9.748043658958791e-133
220
3.974780272298893e-83
230
1
0
CIRCLE
5
119
100
AcDbEntity
8
0
100
AcDbCircle
10
-178.75027160449713
20
1283.2425145690215
30
0
40
1.5000000000000002
210
9.748043658958791e-133
220
3.974780272298893e-83
230
1
0
CIRCLE
5
120
100
AcDbEntity
8
0
100
AcDbCircle
10
-20
20
1330
30
0
40
2.0000000000000018
210
0
220
-0
230
1
0
ENDSEC
0
SECTION
2
OBJECTS
0
DICTIONARY
5
C
100
AcDbDictionary
3
ACAD_GROUP
350
D
3
ACAD_MLINESTYLE
350
17
0
DICTIONARY
5
D
100
AcDbDictionary
0
DICTIONARY
5
1A
330
C
100
AcDbDictionary
0
DICTIONARY
5
17
100
AcDbDictionary
0
ENDSEC
0
EOF
