0
SECTION
2
HEADER
9
$INSUNITS
70
4
9
$ACADVER
1
AC1014
9
$HANDSEED
5
FFFF
0
ENDSEC
0
SECTION
2
TABLES
0
TABLE
2
VPORT
5
8
100
AcDbSymbolTable
0
ENDTAB
0
TABLE
2
LTYPE
5
5
100
AcDbSymbolTable
0
LTYPE
5
14
100
AcDbSymbolTableRecord
100
AcDbLinetypeTableRecord
2
BYBLOCK
70
0
0
LTYPE
5
15
100
AcDbSymbolTableRecord
100
AcDbLinetypeTableRecord
2
BYLAYER
70
0
0
ENDTAB
0
TABLE
2
LAYER
5
2
100
AcDbSymbolTable
70
2
0
LAYER
5
50
100
AcDbSymbolTableRecord
100
AcDbLayerTableRecord
2
0
70
0
6
CONTINUOUS
0
ENDTAB
0
TABLE
2
STYLE
5
3
100
AcDbSymbolTable
70
1
0
STYLE
5
11
100
AcDbSymbolTableRecord
100
AcDbTextStyleTableRecord
2
STANDARD
70
0
0
ENDTAB
0
TABLE
2
VIEW
5
6
100
AcDbSymbolTable
70
0
0
ENDTAB
0
TABLE
2
UCS
5
7
100
AcDbSymbolTable
70
0
0
ENDTAB
0
TABLE
2
APPID
5
9
100
AcDbSymbolTable
70
2
0
APPID
5
12
100
AcDbSymbolTableRecord
100
AcDbRegAppTableRecord
2
ACAD
70
0
0
ENDTAB
0
TABLE
2
DIMSTYLE
5
A
100
AcDbSymbolTable
70
1
0
ENDTAB
0
TABLE
2
BLOCK_RECORD
5
1
100
AcDbSymbolTable
70
1
0
BLOCK_RECORD
5
1F
100
AcDbSymbolTableRecord
100
AcDbBlockTableRecord
2
*MODEL_SPACE
0
BLOCK_RECORD
5
1B
100
AcDbSymbolTableRecord
100
AcDbBlockTableRecord
2
*PAPER_SPACE
0
ENDTAB
0
ENDSEC
0
SECTION
2
BLOCKS
0
BLOCK
5
20
100
AcDbEntity
100
AcDbBlockBegin
2
*MODEL_SPACE
0
ENDBLK
5
21
100
AcDbEntity
100
AcDbBlockEnd
0
BLOCK
5
1C
100
AcDbEntity
100
AcDbBlockBegin
2
*PAPER_SPACE
0
ENDBLK
5
1D
100
AcDbEntity
100
AcDbBlockEnd
0
ENDSEC
0
SECTION
2
ENTITIES
0
LWPOLYLINE
5
100
100
AcDbEntity
8
0
100
AcDbPolyline
90
4
70
1
43
0.0
10
-159.00000000000003
20
1340
10
-159.00000000000003
20
1410
42
0.99999999999999989
10
-163
20
1410
10
-163
20
1340
42
0.99999999999999989
0
LWPOLYLINE
5
101
100
AcDbEntity
8
0
100
AcDbPolyline
90
4
70
1
43
0.0
10
-253
20
1340
10
-253
20
1410
42
0.99999999999999989
10
-257
20
1410
10
-257
20
1340
42
0.99999999999999989
0
LWPOLYLINE
5
102
100
AcDbEntity
8
0
100
AcDbPolyline
90
4
70
1
43
0.0
10
-41.499999999999986
20
1460
10
-41.5
20
1530
42
0.99999999999999989
10
-45.499999999999986
20
1530
10
-45.500000000000007
20
1460
42
0.99999999999999989
0
LWPOLYLINE
5
103
100
AcDbEntity
8
0
100
AcDbPolyline
90
4
70
1
43
0.0
10
-112
20
1450
10
-112.00000000000001
20
1520
42
0.99999999999999989
10
-116
20
1520
10
-116.00000000000001
20
1450
42
0.99999999999999989
0
LWPOLYLINE
5
104
100
AcDbEntity
8
0
100
AcDbPolyline
90
4
70
1
43
0.0
10
-206
20
1460
10
-206
20
1530
42
0.99999999999999989
10
-210
20
1530
10
-210
20
1460
42
0.99999999999999989
0
LWPOLYLINE
5
105
100
AcDbEntity
8
0
100
AcDbPolyline
90
4
70
1
43
0.0
10
-229.50000000000003
20
1340
10
-229.50000000000003
20
1410
42
0.99999999999999989
10
-233.5
20
1410
10
-233.5
20
1340
42
0.99999999999999989
0
LWPOLYLINE
5
106
100
AcDbEntity
8
0
100
AcDbPolyline
90
4
70
1
43
0.0
10
-135.5
20
1340
10
-135.5
20
1410
42
0.99999999999999989
10
-139.5
20
1410
10
-139.5
20
1340
42
0.99999999999999989
0
LWPOLYLINE
5
107
100
AcDbEntity
8
0
100
AcDbPolyline
90
4
70
1
43
0.0
10
-41.499999999999986
20
1340
10
-41.5
20
1410
42
0.99999999999999989
10
-45.499999999999986
20
1410
10
-45.500000000000007
20
1340
42
0.99999999999999989
0
LWPOLYLINE
5
108
100
AcDbEntity
8
0
100
AcDbPolyline
90
4
70
1
43
0.0
10
-253
20
1460
10
-253
20
1530
42
0.99999999999999989
10
-257
20
1530
10
-257
20
1460
42
0.99999999999999989
0
LWPOLYLINE
5
109
100
AcDbEntity
8
0
100
AcDbPolyline
90
4
70
1
43
0.0
10
-159.00000000000003
20
1450
10
-159.00000000000003
20
1520
42
0.99999999999999989
10
-163
20
1520
10
-163
20
1450
42
0.99999999999999989
0
LWPOLYLINE
5
110
100
AcDbEntity
8
0
100
AcDbPolyline
90
4
70
1
43
0.0
10
-65
20
1460
10
-65
20
1530
42
0.99999999999999989
10
-69
20
1530
10
-69
20
1460
42
0.99999999999999989
0
LWPOLYLINE
5
111
100
AcDbEntity
8
0
100
AcDbPolyline
90
4
70
1
43
0.0
10
-22
20
1530
10
-22
20
1460
42
0.99999999999999989
10
-18
20
1460
10
-18
20
1530
42
0.99999999999999989
0
LWPOLYLINE
5
112
100
AcDbEntity
8
0
100
AcDbPolyline
90
4
70
1
43
0.0
10
-229.50000000000003
20
1460
10
-229.50000000000003
20
1530
42
0.99999999999999989
10
-233.5
20
1530
10
-233.5
20
1460
42
0.99999999999999989
0
LWPOLYLINE
5
113
100
AcDbEntity
8
0
100
AcDbPolyline
90
4
70
1
43
0.0
10
-112
20
1340
10
-112.00000000000001
20
1410
42
0.99999999999999989
10
-116
20
1410
10
-116.00000000000001
20
1340
42
0.99999999999999989
0
LWPOLYLINE
5
114
100
AcDbEntity
8
0
100
AcDbPolyline
90
4
70
1
43
0.0
10
-18
20
1340
10
-18
20
1410
42
0.99999999999999989
10
-22
20
1410
10
-22
20
1340
42
0.99999999999999989
0
CIRCLE
5
115
100
AcDbEntity
8
0
100
AcDbCircle
10
-241.32387590004822
20
1319.9227894895103
30
0
40
2
210
4.6037970942348325e-98
220
-2.9652072244713598e-160
230
1
0
CIRCLE
5
116
100
AcDbEntity
8
0
100
AcDbCircle
10
-32.617289100846996
20
1319.931419957459
30
0
40
2
210
4.6037970942348325e-98
220
-2.9652072244713598e-160
230
1
0
CIRCLE
5
117
100
AcDbEntity
8
0
100
AcDbCircle
10
-32.582624878311734
20
1594.9931358642973
30
0
40
2
210
4.6037970942348325e-98
220
-2.9652072244713598e-160
230
1
0
CIRCLE
5
118
100
AcDbEntity
8
0
100
AcDbCircle
10
-241.36129189937259
20
1594.9496477790105
30
0
40
2
210
4.6037970942348325e-98
220
-2.9652072244713598e-160
230
1
0
LINE
5
119
100
AcDbEntity
8
0
100
AcDbLine
10
-35.69999982786544
20
1604.9373921450883
30
0
11
-35.699999827865447
21
1584.4645721018173
31
0
0
ELLIPSE
5
120
100
AcDbEntity
8
0
100
AcDbEllipse
10
-136.65696558702459
20
1579.9373921450883
30
0
11
-101.60985404844085
21
6.54447333656857e-61
31
0.0
40
0.39366260659060337
41
0
42
3.2550151867234596
0
LINE
5
121
100
AcDbEntity
8
0
100
AcDbLine
10
-238.26681963546545
20
1579.9373921450883
30
4.6779115081383741e-96
11
-238.26681963546545
21
1604.9373921450883
31
0
0
LINE
5
122
100
AcDbEntity
8
0
100
AcDbLine
10
-238.26681963546545
20
1604.9373921450883
30
0
11
-266.26681963546548
21
1604.9373921450883
31
1.2890631863857532e-96
0
LINE
5
123
100
AcDbEntity
8
0
100
AcDbLine
10
-266.26681963546548
20
1604.9373921450883
30
1.2890631863857532e-96
11
-266.26681963546548
21
1309.9999707191882
31
0
0
LINE
5
124
100
AcDbEntity
8
0
100
AcDbLine
10
-266.26681963546548
20
1309.9999707191882
30
0
11
-7.6999998278654402
21
1309.9999707191882
31
-1.1903891736957702e-95
0
LINE
5
125
100
AcDbEntity
8
0
100
AcDbLine
10
-7.6999998278654402
20
1309.9999707191882
30
-1.1903891736957702e-95
11
-7.6999998278654402
21
1604.9373921450883
31
0
0
LINE
5
126
100
AcDbEntity
8
0
100
AcDbLine
10
-7.6999998278654402
20
1604.9373921450883
30
0
11
-35.69999982786544
21
1604.9373921450883
31
0
0
CIRCLE
5
127
100
AcDbEntity
8
0
100
AcDbCircle
10
-29.908270972218311
20
1371.4999707191882
30
0
40
1.5000000000000002
210
4.6037970942348325e-98
220
-2.9652072244713598e-160
230
1
0
CIRCLE
5
128
100
AcDbEntity
8
0
100
AcDbCircle
10
-130.40827097221842
20
1370.4121321517925
30
0
40
1.5000000000000002
210
4.6037970942348325e-98
220
-2.9652072244713598e-160
230
1
0
LWPOLYLINE
5
129
100
AcDbEntity
8
0
100
AcDbPolyline
90
4
70
1
43
0.0
10
-65
20
1340
10
-65
20
1410
42
0.99999999999999989
10
-69
20
1410
10
-69
20
1340
42
0.99999999999999989
0
CIRCLE
5
130
100
AcDbEntity
8
0
100
AcDbCircle
10
-208.97028691207041
20
1433.7135708269889
30
0
40
1.5000000000000002
210
4.6037970942348325e-98
220
-2.9652072244713598e-160
230
1
0
CIRCLE
5
131
100
AcDbEntity
8
0
100
AcDbCircle
10
-145.47028691207032
20
1370.2135708269889
30
0
40
1.5000000000000002
210
4.6037970942348325e-98
220
-2.9652072244713598e-160
230
1
0
CIRCLE
5
132
100
AcDbEntity
8
0
100
AcDbCircle
10
-245.22028691207032
20
1371.4999707191882
30
0
40
1.5000000000000002
210
4.6037970942348325e-98
220
-2.9652072244713598e-160
230
1
0
CIRCLE
5
133
100
AcDbEntity
8
0
100
AcDbCircle
10
-245.22028691207032
20
1433.499970719188
30
0
40
1.5000000000000002
210
4.6037970942348325e-98
220
-2.9652072244713598e-160
230
1
0
CIRCLE
5
134
100
AcDbEntity
8
0
100
AcDbCircle
10
-145.47028691207032
20
1433.7135708269889
30
0
40
1.5000000000000002
210
4.6037970942348325e-98
220
-2.9652072244713598e-160
230
1
0
LWPOLYLINE
5
135
100
AcDbEntity
8
0
100
AcDbPolyline
90
4
70
1
43
0.0
10
-210
20
1410
10
-210
20
1340
42
0.99999999999999989
10
-206
20
1340
10
-206
20
1410
42
0.99999999999999989
0
CIRCLE
5
136
100
AcDbEntity
8
0
100
AcDbCircle
10
-65.408270972218332
20
1433.9121321517928
30
0
40
1.5000000000000002
210
4.6037970942348325e-98
220
-2.9652072244713598e-160
230
1
0
CIRCLE
5
137
100
AcDbEntity
8
0
100
AcDbCircle
10
-130.40827097221842
20
1433.9121321517928
30
0
40
1.5000000000000002
210
4.6037970942348325e-98
220
-2.9652072244713598e-160
230
1
0
CIRCLE
5
138
100
AcDbEntity
8
0
100
AcDbCircle
10
-29.908270972218315
20
1433.499970719188
30
0
40
1.5000000000000002
210
4.6037970942348325e-98
220
-2.9652072244713598e-160
230
1
0
ENDSEC
0
SECTION
2
OBJECTS
0
DICTIONARY
5
C
100
AcDbDictionary
3
ACAD_GROUP
350
D
3
ACAD_MLINESTYLE
350
17
0
DICTIONARY
5
D
100
AcDbDictionary
0
DICTIONARY
5
1A
330
C
100
AcDbDictionary
0
DICTIONARY
5
17
100
AcDbDictionary
0
ENDSEC
0
EOF
