solid ASCII
  facet normal 0.000000e+00 9.914449e-01 -1.305262e-01
    outer loop
      vertex   -2.494682e+00 2.124501e+02 1.620505e+03
      vertex   5.500000e+00 2.124501e+02 1.620505e+03
      vertex   -2.494682e+00 2.123819e+02 1.619988e+03
    endloop
  endfacet
  facet normal 0.000000e+00 9.914449e-01 -1.305262e-01
    outer loop
      vertex   -2.494682e+00 2.123819e+02 1.619988e+03
      vertex   5.500000e+00 2.124501e+02 1.620505e+03
      vertex   5.500000e+00 2.123819e+02 1.619988e+03
    endloop
  endfacet
  facet normal -0.000000e+00 9.914449e-01 1.305262e-01
    outer loop
      vertex   -2.494682e+00 2.123819e+02 1.619988e+03
      vertex   5.500000e+00 2.123819e+02 1.619988e+03
      vertex   -2.494682e+00 2.124501e+02 1.619470e+03
    endloop
  endfacet
  facet normal -0.000000e+00 9.914449e-01 1.305262e-01
    outer loop
      vertex   -2.494682e+00 2.124501e+02 1.619470e+03
      vertex   5.500000e+00 2.123819e+02 1.619988e+03
      vertex   5.500000e+00 2.124501e+02 1.619470e+03
    endloop
  endfacet
  facet normal -0.000000e+00 9.238795e-01 3.826834e-01
    outer loop
      vertex   -2.494682e+00 2.124501e+02 1.619470e+03
      vertex   5.500000e+00 2.124501e+02 1.619470e+03
      vertex   -2.494682e+00 2.126499e+02 1.618988e+03
    endloop
  endfacet
  facet normal -0.000000e+00 9.238795e-01 3.826834e-01
    outer loop
      vertex   -2.494682e+00 2.126499e+02 1.618988e+03
      vertex   5.500000e+00 2.124501e+02 1.619470e+03
      vertex   5.500000e+00 2.126499e+02 1.618988e+03
    endloop
  endfacet
  facet normal -0.000000e+00 7.933533e-01 6.087614e-01
    outer loop
      vertex   -2.494682e+00 2.126499e+02 1.618988e+03
      vertex   5.500000e+00 2.126499e+02 1.618988e+03
      vertex   -2.494682e+00 2.129677e+02 1.618574e+03
    endloop
  endfacet
  facet normal -0.000000e+00 7.933533e-01 6.087614e-01
    outer loop
      vertex   -2.494682e+00 2.129677e+02 1.618574e+03
      vertex   5.500000e+00 2.126499e+02 1.618988e+03
      vertex   5.500000e+00 2.129677e+02 1.618574e+03
    endloop
  endfacet
  facet normal -0.000000e+00 6.087614e-01 7.933533e-01
    outer loop
      vertex   -2.494682e+00 2.129677e+02 1.618574e+03
      vertex   5.500000e+00 2.129677e+02 1.618574e+03
      vertex   -2.494682e+00 2.133819e+02 1.618256e+03
    endloop
  endfacet
  facet normal -0.000000e+00 6.087614e-01 7.933533e-01
    outer loop
      vertex   -2.494682e+00 2.133819e+02 1.618256e+03
      vertex   5.500000e+00 2.129677e+02 1.618574e+03
      vertex   5.500000e+00 2.133819e+02 1.618256e+03
    endloop
  endfacet
  facet normal -0.000000e+00 3.826834e-01 9.238795e-01
    outer loop
      vertex   -2.494682e+00 2.133819e+02 1.618256e+03
      vertex   5.500000e+00 2.133819e+02 1.618256e+03
      vertex   -2.494682e+00 2.138643e+02 1.618056e+03
    endloop
  endfacet
  facet normal -0.000000e+00 3.826834e-01 9.238795e-01
    outer loop
      vertex   -2.494682e+00 2.138643e+02 1.618056e+03
      vertex   5.500000e+00 2.133819e+02 1.618256e+03
      vertex   5.500000e+00 2.138643e+02 1.618056e+03
    endloop
  endfacet
  facet normal -0.000000e+00 1.305262e-01 9.914449e-01
    outer loop
      vertex   -2.494682e+00 2.138643e+02 1.618056e+03
      vertex   5.500000e+00 2.138643e+02 1.618056e+03
      vertex   -2.494682e+00 2.143819e+02 1.617988e+03
    endloop
  endfacet
  facet normal -0.000000e+00 1.305262e-01 9.914449e-01
    outer loop
      vertex   -2.494682e+00 2.143819e+02 1.617988e+03
      vertex   5.500000e+00 2.138643e+02 1.618056e+03
      vertex   5.500000e+00 2.143819e+02 1.617988e+03
    endloop
  endfacet
  facet normal 0.000000e+00 -1.305262e-01 9.914449e-01
    outer loop
      vertex   -2.494682e+00 2.143819e+02 1.617988e+03
      vertex   5.500000e+00 2.143819e+02 1.617988e+03
      vertex   -2.494682e+00 2.148996e+02 1.618056e+03
    endloop
  endfacet
  facet normal 0.000000e+00 -1.305262e-01 9.914449e-01
    outer loop
      vertex   -2.494682e+00 2.148996e+02 1.618056e+03
      vertex   5.500000e+00 2.143819e+02 1.617988e+03
      vertex   5.500000e+00 2.148996e+02 1.618056e+03
    endloop
  endfacet
  facet normal 0.000000e+00 -3.826834e-01 9.238795e-01
    outer loop
      vertex   -2.494682e+00 2.148996e+02 1.618056e+03
      vertex   5.500000e+00 2.148996e+02 1.618056e+03
      vertex   -2.494682e+00 2.153819e+02 1.618256e+03
    endloop
  endfacet
  facet normal 0.000000e+00 -3.826834e-01 9.238795e-01
    outer loop
      vertex   -2.494682e+00 2.153819e+02 1.618256e+03
      vertex   5.500000e+00 2.148996e+02 1.618056e+03
      vertex   5.500000e+00 2.153819e+02 1.618256e+03
    endloop
  endfacet
  facet normal 0.000000e+00 -6.087614e-01 7.933533e-01
    outer loop
      vertex   -2.494682e+00 2.153819e+02 1.618256e+03
      vertex   5.500000e+00 2.153819e+02 1.618256e+03
      vertex   -2.494682e+00 2.157961e+02 1.618574e+03
    endloop
  endfacet
  facet normal 0.000000e+00 -6.087614e-01 7.933533e-01
    outer loop
      vertex   -2.494682e+00 2.157961e+02 1.618574e+03
      vertex   5.500000e+00 2.153819e+02 1.618256e+03
      vertex   5.500000e+00 2.157961e+02 1.618574e+03
    endloop
  endfacet
  facet normal 0.000000e+00 -7.933533e-01 6.087614e-01
    outer loop
      vertex   -2.494682e+00 2.157961e+02 1.618574e+03
      vertex   5.500000e+00 2.157961e+02 1.618574e+03
      vertex   -2.494682e+00 2.161140e+02 1.618988e+03
    endloop
  endfacet
  facet normal 0.000000e+00 -7.933533e-01 6.087614e-01
    outer loop
      vertex   -2.494682e+00 2.161140e+02 1.618988e+03
      vertex   5.500000e+00 2.157961e+02 1.618574e+03
      vertex   5.500000e+00 2.161140e+02 1.618988e+03
    endloop
  endfacet
  facet normal 0.000000e+00 -9.238795e-01 3.826834e-01
    outer loop
      vertex   -2.494682e+00 2.161140e+02 1.618988e+03
      vertex   5.500000e+00 2.161140e+02 1.618988e+03
      vertex   -2.494682e+00 2.163138e+02 1.619470e+03
    endloop
  endfacet
  facet normal 0.000000e+00 -9.238795e-01 3.826834e-01
    outer loop
      vertex   -2.494682e+00 2.163138e+02 1.619470e+03
      vertex   5.500000e+00 2.161140e+02 1.618988e+03
      vertex   5.500000e+00 2.163138e+02 1.619470e+03
    endloop
  endfacet
  facet normal 0.000000e+00 -9.914449e-01 1.305262e-01
    outer loop
      vertex   -2.494682e+00 2.163138e+02 1.619470e+03
      vertex   5.500000e+00 2.163138e+02 1.619470e+03
      vertex   -2.494682e+00 2.163819e+02 1.619988e+03
    endloop
  endfacet
  facet normal 0.000000e+00 -9.914449e-01 1.305262e-01
    outer loop
      vertex   -2.494682e+00 2.163819e+02 1.619988e+03
      vertex   5.500000e+00 2.163138e+02 1.619470e+03
      vertex   5.500000e+00 2.163819e+02 1.619988e+03
    endloop
  endfacet
  facet normal 0.000000e+00 -9.914449e-01 -1.305262e-01
    outer loop
      vertex   -2.494682e+00 2.163819e+02 1.619988e+03
      vertex   5.500000e+00 2.163819e+02 1.619988e+03
      vertex   -2.494682e+00 2.163138e+02 1.620505e+03
    endloop
  endfacet
  facet normal 0.000000e+00 -9.914449e-01 -1.305262e-01
    outer loop
      vertex   -2.494682e+00 2.163138e+02 1.620505e+03
      vertex   5.500000e+00 2.163819e+02 1.619988e+03
      vertex   5.500000e+00 2.163138e+02 1.620505e+03
    endloop
  endfacet
  facet normal 0.000000e+00 -9.238795e-01 -3.826834e-01
    outer loop
      vertex   -2.494682e+00 2.163138e+02 1.620505e+03
      vertex   5.500000e+00 2.163138e+02 1.620505e+03
      vertex   -2.494682e+00 2.161140e+02 1.620988e+03
    endloop
  endfacet
  facet normal 0.000000e+00 -9.238795e-01 -3.826834e-01
    outer loop
      vertex   -2.494682e+00 2.161140e+02 1.620988e+03
      vertex   5.500000e+00 2.163138e+02 1.620505e+03
      vertex   5.500000e+00 2.161140e+02 1.620988e+03
    endloop
  endfacet
  facet normal 0.000000e+00 -7.933533e-01 -6.087614e-01
    outer loop
      vertex   -2.494682e+00 2.161140e+02 1.620988e+03
      vertex   5.500000e+00 2.161140e+02 1.620988e+03
      vertex   -2.494682e+00 2.157961e+02 1.621402e+03
    endloop
  endfacet
  facet normal 0.000000e+00 -7.933533e-01 -6.087614e-01
    outer loop
      vertex   -2.494682e+00 2.157961e+02 1.621402e+03
      vertex   5.500000e+00 2.161140e+02 1.620988e+03
      vertex   5.500000e+00 2.157961e+02 1.621402e+03
    endloop
  endfacet
  facet normal 0.000000e+00 -6.087614e-01 -7.933533e-01
    outer loop
      vertex   -2.494682e+00 2.157961e+02 1.621402e+03
      vertex   5.500000e+00 2.157961e+02 1.621402e+03
      vertex   -2.494682e+00 2.153819e+02 1.621720e+03
    endloop
  endfacet
  facet normal 0.000000e+00 -6.087614e-01 -7.933533e-01
    outer loop
      vertex   -2.494682e+00 2.153819e+02 1.621720e+03
      vertex   5.500000e+00 2.157961e+02 1.621402e+03
      vertex   5.500000e+00 2.153819e+02 1.621720e+03
    endloop
  endfacet
  facet normal 0.000000e+00 -3.826834e-01 -9.238795e-01
    outer loop
      vertex   -2.494682e+00 2.153819e+02 1.621720e+03
      vertex   5.500000e+00 2.153819e+02 1.621720e+03
      vertex   -2.494682e+00 2.148996e+02 1.621920e+03
    endloop
  endfacet
  facet normal 0.000000e+00 -3.826834e-01 -9.238795e-01
    outer loop
      vertex   -2.494682e+00 2.148996e+02 1.621920e+03
      vertex   5.500000e+00 2.153819e+02 1.621720e+03
      vertex   5.500000e+00 2.148996e+02 1.621920e+03
    endloop
  endfacet
  facet normal 0.000000e+00 -1.305262e-01 -9.914449e-01
    outer loop
      vertex   -2.494682e+00 2.148996e+02 1.621920e+03
      vertex   5.500000e+00 2.148996e+02 1.621920e+03
      vertex   -2.494682e+00 2.143819e+02 1.621988e+03
    endloop
  endfacet
  facet normal 0.000000e+00 -1.305262e-01 -9.914449e-01
    outer loop
      vertex   -2.494682e+00 2.143819e+02 1.621988e+03
      vertex   5.500000e+00 2.148996e+02 1.621920e+03
      vertex   5.500000e+00 2.143819e+02 1.621988e+03
    endloop
  endfacet
  facet normal 0.000000e+00 1.305262e-01 -9.914449e-01
    outer loop
      vertex   -2.494682e+00 2.143819e+02 1.621988e+03
      vertex   5.500000e+00 2.143819e+02 1.621988e+03
      vertex   -2.494682e+00 2.138643e+02 1.621920e+03
    endloop
  endfacet
  facet normal 0.000000e+00 1.305262e-01 -9.914449e-01
    outer loop
      vertex   -2.494682e+00 2.138643e+02 1.621920e+03
      vertex   5.500000e+00 2.143819e+02 1.621988e+03
      vertex   5.500000e+00 2.138643e+02 1.621920e+03
    endloop
  endfacet
  facet normal 0.000000e+00 3.826834e-01 -9.238795e-01
    outer loop
      vertex   -2.494682e+00 2.138643e+02 1.621920e+03
      vertex   5.500000e+00 2.138643e+02 1.621920e+03
      vertex   -2.494682e+00 2.133819e+02 1.621720e+03
    endloop
  endfacet
  facet normal 0.000000e+00 3.826834e-01 -9.238795e-01
    outer loop
      vertex   -2.494682e+00 2.133819e+02 1.621720e+03
      vertex   5.500000e+00 2.138643e+02 1.621920e+03
      vertex   5.500000e+00 2.133819e+02 1.621720e+03
    endloop
  endfacet
  facet normal 0.000000e+00 6.087614e-01 -7.933533e-01
    outer loop
      vertex   -2.494682e+00 2.133819e+02 1.621720e+03
      vertex   5.500000e+00 2.133819e+02 1.621720e+03
      vertex   -2.494682e+00 2.129677e+02 1.621402e+03
    endloop
  endfacet
  facet normal 0.000000e+00 6.087614e-01 -7.933533e-01
    outer loop
      vertex   -2.494682e+00 2.129677e+02 1.621402e+03
      vertex   5.500000e+00 2.133819e+02 1.621720e+03
      vertex   5.500000e+00 2.129677e+02 1.621402e+03
    endloop
  endfacet
  facet normal 0.000000e+00 7.933533e-01 -6.087614e-01
    outer loop
      vertex   -2.494682e+00 2.129677e+02 1.621402e+03
      vertex   5.500000e+00 2.129677e+02 1.621402e+03
      vertex   -2.494682e+00 2.126499e+02 1.620988e+03
    endloop
  endfacet
  facet normal 0.000000e+00 7.933533e-01 -6.087614e-01
    outer loop
      vertex   -2.494682e+00 2.126499e+02 1.620988e+03
      vertex   5.500000e+00 2.129677e+02 1.621402e+03
      vertex   5.500000e+00 2.126499e+02 1.620988e+03
    endloop
  endfacet
  facet normal 0.000000e+00 9.238795e-01 -3.826834e-01
    outer loop
      vertex   -2.494682e+00 2.126499e+02 1.620988e+03
      vertex   5.500000e+00 2.126499e+02 1.620988e+03
      vertex   -2.494682e+00 2.124501e+02 1.620505e+03
    endloop
  endfacet
  facet normal 0.000000e+00 9.238795e-01 -3.826834e-01
    outer loop
      vertex   -2.494682e+00 2.124501e+02 1.620505e+03
      vertex   5.500000e+00 2.126499e+02 1.620988e+03
      vertex   5.500000e+00 2.124501e+02 1.620505e+03
    endloop
  endfacet
  facet normal 0.000000e+00 9.914449e-01 -1.305262e-01
    outer loop
      vertex   -2.494682e+00 3.524501e+02 1.620505e+03
      vertex   5.500000e+00 3.524501e+02 1.620505e+03
      vertex   -2.494682e+00 3.523819e+02 1.619988e+03
    endloop
  endfacet
  facet normal 0.000000e+00 9.914449e-01 -1.305262e-01
    outer loop
      vertex   -2.494682e+00 3.523819e+02 1.619988e+03
      vertex   5.500000e+00 3.524501e+02 1.620505e+03
      vertex   5.500000e+00 3.523819e+02 1.619988e+03
    endloop
  endfacet
  facet normal -0.000000e+00 9.914449e-01 1.305262e-01
    outer loop
      vertex   -2.494682e+00 3.523819e+02 1.619988e+03
      vertex   5.500000e+00 3.523819e+02 1.619988e+03
      vertex   -2.494682e+00 3.524501e+02 1.619470e+03
    endloop
  endfacet
  facet normal -0.000000e+00 9.914449e-01 1.305262e-01
    outer loop
      vertex   -2.494682e+00 3.524501e+02 1.619470e+03
      vertex   5.500000e+00 3.523819e+02 1.619988e+03
      vertex   5.500000e+00 3.524501e+02 1.619470e+03
    endloop
  endfacet
  facet normal -0.000000e+00 9.238795e-01 3.826834e-01
    outer loop
      vertex   -2.494682e+00 3.524501e+02 1.619470e+03
      vertex   5.500000e+00 3.524501e+02 1.619470e+03
      vertex   -2.494682e+00 3.526499e+02 1.618988e+03
    endloop
  endfacet
  facet normal -0.000000e+00 9.238795e-01 3.826834e-01
    outer loop
      vertex   -2.494682e+00 3.526499e+02 1.618988e+03
      vertex   5.500000e+00 3.524501e+02 1.619470e+03
      vertex   5.500000e+00 3.526499e+02 1.618988e+03
    endloop
  endfacet
  facet normal -0.000000e+00 7.933533e-01 6.087614e-01
    outer loop
      vertex   -2.494682e+00 3.526499e+02 1.618988e+03
      vertex   5.500000e+00 3.526499e+02 1.618988e+03
      vertex   -2.494682e+00 3.529677e+02 1.618574e+03
    endloop
  endfacet
  facet normal -0.000000e+00 7.933533e-01 6.087614e-01
    outer loop
      vertex   -2.494682e+00 3.529677e+02 1.618574e+03
      vertex   5.500000e+00 3.526499e+02 1.618988e+03
      vertex   5.500000e+00 3.529677e+02 1.618574e+03
    endloop
  endfacet
  facet normal -0.000000e+00 6.087614e-01 7.933533e-01
    outer loop
      vertex   -2.494682e+00 3.529677e+02 1.618574e+03
      vertex   5.500000e+00 3.529677e+02 1.618574e+03
      vertex   -2.494682e+00 3.533819e+02 1.618256e+03
    endloop
  endfacet
  facet normal -0.000000e+00 6.087614e-01 7.933533e-01
    outer loop
      vertex   -2.494682e+00 3.533819e+02 1.618256e+03
      vertex   5.500000e+00 3.529677e+02 1.618574e+03
      vertex   5.500000e+00 3.533819e+02 1.618256e+03
    endloop
  endfacet
  facet normal -0.000000e+00 3.826834e-01 9.238795e-01
    outer loop
      vertex   -2.494682e+00 3.533819e+02 1.618256e+03
      vertex   5.500000e+00 3.533819e+02 1.618256e+03
      vertex   -2.494682e+00 3.538643e+02 1.618056e+03
    endloop
  endfacet
  facet normal -0.000000e+00 3.826834e-01 9.238795e-01
    outer loop
      vertex   -2.494682e+00 3.538643e+02 1.618056e+03
      vertex   5.500000e+00 3.533819e+02 1.618256e+03
      vertex   5.500000e+00 3.538643e+02 1.618056e+03
    endloop
  endfacet
  facet normal -0.000000e+00 1.305262e-01 9.914449e-01
    outer loop
      vertex   -2.494682e+00 3.538643e+02 1.618056e+03
      vertex   5.500000e+00 3.538643e+02 1.618056e+03
      vertex   -2.494682e+00 3.543819e+02 1.617988e+03
    endloop
  endfacet
  facet normal -0.000000e+00 1.305262e-01 9.914449e-01
    outer loop
      vertex   -2.494682e+00 3.543819e+02 1.617988e+03
      vertex   5.500000e+00 3.538643e+02 1.618056e+03
      vertex   5.500000e+00 3.543819e+02 1.617988e+03
    endloop
  endfacet
  facet normal 0.000000e+00 -1.305262e-01 9.914449e-01
    outer loop
      vertex   -2.494682e+00 3.543819e+02 1.617988e+03
      vertex   5.500000e+00 3.543819e+02 1.617988e+03
      vertex   -2.494682e+00 3.548996e+02 1.618056e+03
    endloop
  endfacet
  facet normal 0.000000e+00 -1.305262e-01 9.914449e-01
    outer loop
      vertex   -2.494682e+00 3.548996e+02 1.618056e+03
      vertex   5.500000e+00 3.543819e+02 1.617988e+03
      vertex   5.500000e+00 3.548996e+02 1.618056e+03
    endloop
  endfacet
  facet normal 0.000000e+00 -3.826834e-01 9.238795e-01
    outer loop
      vertex   -2.494682e+00 3.548996e+02 1.618056e+03
      vertex   5.500000e+00 3.548996e+02 1.618056e+03
      vertex   -2.494682e+00 3.553819e+02 1.618256e+03
    endloop
  endfacet
  facet normal 0.000000e+00 -3.826834e-01 9.238795e-01
    outer loop
      vertex   -2.494682e+00 3.553819e+02 1.618256e+03
      vertex   5.500000e+00 3.548996e+02 1.618056e+03
      vertex   5.500000e+00 3.553819e+02 1.618256e+03
    endloop
  endfacet
  facet normal 0.000000e+00 -6.087614e-01 7.933533e-01
    outer loop
      vertex   -2.494682e+00 3.553819e+02 1.618256e+03
      vertex   5.500000e+00 3.553819e+02 1.618256e+03
      vertex   -2.494682e+00 3.557961e+02 1.618574e+03
    endloop
  endfacet
  facet normal 0.000000e+00 -6.087614e-01 7.933533e-01
    outer loop
      vertex   -2.494682e+00 3.557961e+02 1.618574e+03
      vertex   5.500000e+00 3.553819e+02 1.618256e+03
      vertex   5.500000e+00 3.557961e+02 1.618574e+03
    endloop
  endfacet
  facet normal 0.000000e+00 -7.933533e-01 6.087614e-01
    outer loop
      vertex   -2.494682e+00 3.557961e+02 1.618574e+03
      vertex   5.500000e+00 3.557961e+02 1.618574e+03
      vertex   -2.494682e+00 3.561140e+02 1.618988e+03
    endloop
  endfacet
  facet normal 0.000000e+00 -7.933533e-01 6.087614e-01
    outer loop
      vertex   -2.494682e+00 3.561140e+02 1.618988e+03
      vertex   5.500000e+00 3.557961e+02 1.618574e+03
      vertex   5.500000e+00 3.561140e+02 1.618988e+03
    endloop
  endfacet
  facet normal 0.000000e+00 -9.238795e-01 3.826834e-01
    outer loop
      vertex   -2.494682e+00 3.561140e+02 1.618988e+03
      vertex   5.500000e+00 3.561140e+02 1.618988e+03
      vertex   -2.494682e+00 3.563138e+02 1.619470e+03
    endloop
  endfacet
  facet normal 0.000000e+00 -9.238795e-01 3.826834e-01
    outer loop
      vertex   -2.494682e+00 3.563138e+02 1.619470e+03
      vertex   5.500000e+00 3.561140e+02 1.618988e+03
      vertex   5.500000e+00 3.563138e+02 1.619470e+03
    endloop
  endfacet
  facet normal 0.000000e+00 -9.914449e-01 1.305262e-01
    outer loop
      vertex   -2.494682e+00 3.563138e+02 1.619470e+03
      vertex   5.500000e+00 3.563138e+02 1.619470e+03
      vertex   -2.494682e+00 3.563819e+02 1.619988e+03
    endloop
  endfacet
  facet normal 0.000000e+00 -9.914449e-01 1.305262e-01
    outer loop
      vertex   -2.494682e+00 3.563819e+02 1.619988e+03
      vertex   5.500000e+00 3.563138e+02 1.619470e+03
      vertex   5.500000e+00 3.563819e+02 1.619988e+03
    endloop
  endfacet
  facet normal 0.000000e+00 -9.914449e-01 -1.305262e-01
    outer loop
      vertex   -2.494682e+00 3.563819e+02 1.619988e+03
      vertex   5.500000e+00 3.563819e+02 1.619988e+03
      vertex   -2.494682e+00 3.563138e+02 1.620505e+03
    endloop
  endfacet
  facet normal 0.000000e+00 -9.914449e-01 -1.305262e-01
    outer loop
      vertex   -2.494682e+00 3.563138e+02 1.620505e+03
      vertex   5.500000e+00 3.563819e+02 1.619988e+03
      vertex   5.500000e+00 3.563138e+02 1.620505e+03
    endloop
  endfacet
  facet normal 0.000000e+00 -9.238795e-01 -3.826834e-01
    outer loop
      vertex   -2.494682e+00 3.563138e+02 1.620505e+03
      vertex   5.500000e+00 3.563138e+02 1.620505e+03
      vertex   -2.494682e+00 3.561140e+02 1.620988e+03
    endloop
  endfacet
  facet normal 0.000000e+00 -9.238795e-01 -3.826834e-01
    outer loop
      vertex   -2.494682e+00 3.561140e+02 1.620988e+03
      vertex   5.500000e+00 3.563138e+02 1.620505e+03
      vertex   5.500000e+00 3.561140e+02 1.620988e+03
    endloop
  endfacet
  facet normal 0.000000e+00 -7.933533e-01 -6.087614e-01
    outer loop
      vertex   -2.494682e+00 3.561140e+02 1.620988e+03
      vertex   5.500000e+00 3.561140e+02 1.620988e+03
      vertex   -2.494682e+00 3.557961e+02 1.621402e+03
    endloop
  endfacet
  facet normal 0.000000e+00 -7.933533e-01 -6.087614e-01
    outer loop
      vertex   -2.494682e+00 3.557961e+02 1.621402e+03
      vertex   5.500000e+00 3.561140e+02 1.620988e+03
      vertex   5.500000e+00 3.557961e+02 1.621402e+03
    endloop
  endfacet
  facet normal 0.000000e+00 -6.087614e-01 -7.933533e-01
    outer loop
      vertex   -2.494682e+00 3.557961e+02 1.621402e+03
      vertex   5.500000e+00 3.557961e+02 1.621402e+03
      vertex   -2.494682e+00 3.553819e+02 1.621720e+03
    endloop
  endfacet
  facet normal 0.000000e+00 -6.087614e-01 -7.933533e-01
    outer loop
      vertex   -2.494682e+00 3.553819e+02 1.621720e+03
      vertex   5.500000e+00 3.557961e+02 1.621402e+03
      vertex   5.500000e+00 3.553819e+02 1.621720e+03
    endloop
  endfacet
  facet normal 0.000000e+00 -3.826834e-01 -9.238795e-01
    outer loop
      vertex   -2.494682e+00 3.553819e+02 1.621720e+03
      vertex   5.500000e+00 3.553819e+02 1.621720e+03
      vertex   -2.494682e+00 3.548996e+02 1.621920e+03
    endloop
  endfacet
  facet normal 0.000000e+00 -3.826834e-01 -9.238795e-01
    outer loop
      vertex   -2.494682e+00 3.548996e+02 1.621920e+03
      vertex   5.500000e+00 3.553819e+02 1.621720e+03
      vertex   5.500000e+00 3.548996e+02 1.621920e+03
    endloop
  endfacet
  facet normal 0.000000e+00 -1.305262e-01 -9.914449e-01
    outer loop
      vertex   -2.494682e+00 3.548996e+02 1.621920e+03
      vertex   5.500000e+00 3.548996e+02 1.621920e+03
      vertex   -2.494682e+00 3.543819e+02 1.621988e+03
    endloop
  endfacet
  facet normal 0.000000e+00 -1.305262e-01 -9.914449e-01
    outer loop
      vertex   -2.494682e+00 3.543819e+02 1.621988e+03
      vertex   5.500000e+00 3.548996e+02 1.621920e+03
      vertex   5.500000e+00 3.543819e+02 1.621988e+03
    endloop
  endfacet
  facet normal 0.000000e+00 1.305262e-01 -9.914449e-01
    outer loop
      vertex   -2.494682e+00 3.543819e+02 1.621988e+03
      vertex   5.500000e+00 3.543819e+02 1.621988e+03
      vertex   -2.494682e+00 3.538643e+02 1.621920e+03
    endloop
  endfacet
  facet normal 0.000000e+00 1.305262e-01 -9.914449e-01
    outer loop
      vertex   -2.494682e+00 3.538643e+02 1.621920e+03
      vertex   5.500000e+00 3.543819e+02 1.621988e+03
      vertex   5.500000e+00 3.538643e+02 1.621920e+03
    endloop
  endfacet
  facet normal 0.000000e+00 3.826834e-01 -9.238795e-01
    outer loop
      vertex   -2.494682e+00 3.538643e+02 1.621920e+03
      vertex   5.500000e+00 3.538643e+02 1.621920e+03
      vertex   -2.494682e+00 3.533819e+02 1.621720e+03
    endloop
  endfacet
  facet normal 0.000000e+00 3.826834e-01 -9.238795e-01
    outer loop
      vertex   -2.494682e+00 3.533819e+02 1.621720e+03
      vertex   5.500000e+00 3.538643e+02 1.621920e+03
      vertex   5.500000e+00 3.533819e+02 1.621720e+03
    endloop
  endfacet
  facet normal 0.000000e+00 6.087614e-01 -7.933533e-01
    outer loop
      vertex   -2.494682e+00 3.533819e+02 1.621720e+03
      vertex   5.500000e+00 3.533819e+02 1.621720e+03
      vertex   -2.494682e+00 3.529677e+02 1.621402e+03
    endloop
  endfacet
  facet normal 0.000000e+00 6.087614e-01 -7.933533e-01
    outer loop
      vertex   -2.494682e+00 3.529677e+02 1.621402e+03
      vertex   5.500000e+00 3.533819e+02 1.621720e+03
      vertex   5.500000e+00 3.529677e+02 1.621402e+03
    endloop
  endfacet
  facet normal 0.000000e+00 7.933533e-01 -6.087614e-01
    outer loop
      vertex   -2.494682e+00 3.529677e+02 1.621402e+03
      vertex   5.500000e+00 3.529677e+02 1.621402e+03
      vertex   -2.494682e+00 3.526499e+02 1.620988e+03
    endloop
  endfacet
  facet normal 0.000000e+00 7.933533e-01 -6.087614e-01
    outer loop
      vertex   -2.494682e+00 3.526499e+02 1.620988e+03
      vertex   5.500000e+00 3.529677e+02 1.621402e+03
      vertex   5.500000e+00 3.526499e+02 1.620988e+03
    endloop
  endfacet
  facet normal 0.000000e+00 9.238795e-01 -3.826834e-01
    outer loop
      vertex   -2.494682e+00 3.526499e+02 1.620988e+03
      vertex   5.500000e+00 3.526499e+02 1.620988e+03
      vertex   -2.494682e+00 3.524501e+02 1.620505e+03
    endloop
  endfacet
  facet normal 0.000000e+00 9.238795e-01 -3.826834e-01
    outer loop
      vertex   -2.494682e+00 3.524501e+02 1.620505e+03
      vertex   5.500000e+00 3.526499e+02 1.620988e+03
      vertex   5.500000e+00 3.524501e+02 1.620505e+03
    endloop
  endfacet
  facet normal -9.862883e-01 1.650317e-01 0.000000e+00
    outer loop
      vertex   -4.919992e+01 2.205000e+02 1.625000e+03
      vertex   -4.919992e+01 2.205000e+02 1.633000e+03
      vertex   -4.705631e+01 2.333110e+02 1.625000e+03
    endloop
  endfacet
  facet normal -9.862305e-01 1.653756e-01 5.661921e-04
    outer loop
      vertex   -4.705631e+01 2.333110e+02 1.625000e+03
      vertex   -4.919992e+01 2.205000e+02 1.633000e+03
      vertex   -4.697381e+01 2.337756e+02 1.633000e+03
    endloop
  endfacet
  facet normal -9.829378e-01 1.839372e-01 -5.456263e-04
    outer loop
      vertex   -4.705631e+01 2.333110e+02 1.625000e+03
      vertex   -4.697381e+01 2.337756e+02 1.633000e+03
      vertex   -4.466713e+01 2.460785e+02 1.625000e+03
    endloop
  endfacet
  facet normal -9.827444e-01 1.849653e-01 1.091252e-03
    outer loop
      vertex   -4.466713e+01 2.460785e+02 1.625000e+03
      vertex   -4.697381e+01 2.337756e+02 1.633000e+03
      vertex   -4.448401e+01 2.470042e+02 1.633000e+03
    endloop
  endfacet
  facet normal -9.792248e-01 2.027748e-01 -1.050120e-03
    outer loop
      vertex   -4.466713e+01 2.460785e+02 1.625000e+03
      vertex   -4.448401e+01 2.470042e+02 1.633000e+03
      vertex   -4.203326e+01 2.587977e+02 1.625000e+03
    endloop
  endfacet
  facet normal -9.788691e-01 2.044818e-01 1.575179e-03
    outer loop
      vertex   -4.203326e+01 2.587977e+02 1.625000e+03
      vertex   -4.448401e+01 2.470042e+02 1.633000e+03
      vertex   -4.173150e+01 2.601807e+02 1.633000e+03
    endloop
  endfacet
  facet normal -9.751506e-01 2.215377e-01 -1.513482e-03
    outer loop
      vertex   -4.203326e+01 2.587977e+02 1.625000e+03
      vertex   -4.173150e+01 2.601807e+02 1.633000e+03
      vertex   -3.915569e+01 2.714641e+02 1.625000e+03
    endloop
  endfacet
  facet normal -9.746061e-01 2.239172e-01 2.017974e-03
    outer loop
      vertex   -3.915569e+01 2.714641e+02 1.625000e+03
      vertex   -4.173150e+01 2.601807e+02 1.633000e+03
      vertex   -3.871737e+01 2.732998e+02 1.633000e+03
    endloop
  endfacet
  facet normal -9.707168e-01 2.402188e-01 -1.935710e-03
    outer loop
      vertex   -3.915569e+01 2.714641e+02 1.625000e+03
      vertex   -3.871737e+01 2.732998e+02 1.633000e+03
      vertex   -3.603545e+01 2.840728e+02 1.625000e+03
    endloop
  endfacet
  facet normal -9.699571e-01 2.432639e-01 2.419635e-03
    outer loop
      vertex   -3.603545e+01 2.840728e+02 1.625000e+03
      vertex   -3.871737e+01 2.732998e+02 1.633000e+03
      vertex   -3.544281e+01 2.863563e+02 1.633000e+03
    endloop
  endfacet
  facet normal -9.659251e-01 2.588113e-01 -2.316805e-03
    outer loop
      vertex   -3.603545e+01 2.840728e+02 1.625000e+03
      vertex   -3.544281e+01 2.863563e+02 1.633000e+03
      vertex   -3.267372e+01 2.966194e+02 1.625000e+03
    endloop
  endfacet
  facet normal -9.649241e-01 2.625143e-01 2.780162e-03
    outer loop
      vertex   -3.267372e+01 2.966194e+02 1.625000e+03
      vertex   -3.544281e+01 2.863563e+02 1.633000e+03
      vertex   -3.190912e+01 2.993451e+02 1.633000e+03
    endloop
  endfacet
  facet normal -9.607773e-01 2.773084e-01 -2.656767e-03
    outer loop
      vertex   -3.267372e+01 2.966194e+02 1.625000e+03
      vertex   -3.190912e+01 2.993451e+02 1.633000e+03
      vertex   -2.907172e+01 3.090990e+02 1.625000e+03
    endloop
  endfacet
  facet normal -9.595091e-01 2.816607e-01 3.099557e-03
    outer loop
      vertex   -2.907172e+01 3.090990e+02 1.625000e+03
      vertex   -3.190912e+01 2.993451e+02 1.633000e+03
      vertex   -2.811769e+01 3.122610e+02 1.633000e+03
    endloop
  endfacet
  facet normal -9.552753e-01 2.957032e-01 -2.955596e-03
    outer loop
      vertex   -2.907172e+01 3.090990e+02 1.625000e+03
      vertex   -2.811769e+01 3.122610e+02 1.633000e+03
      vertex   -2.523079e+01 3.215072e+02 1.625000e+03
    endloop
  endfacet
  facet normal -9.537142e-01 3.006956e-01 3.377818e-03
    outer loop
      vertex   -2.523079e+01 3.215072e+02 1.625000e+03
      vertex   -2.811769e+01 3.122610e+02 1.633000e+03
      vertex   -2.407004e+01 3.250989e+02 1.633000e+03
    endloop
  endfacet
  facet normal -9.494212e-01 3.139890e-01 -3.213291e-03
    outer loop
      vertex   -2.523079e+01 3.215072e+02 1.625000e+03
      vertex   -2.407004e+01 3.250989e+02 1.633000e+03
      vertex   -2.115233e+01 3.338394e+02 1.625000e+03
    endloop
  endfacet
  facet normal -9.475418e-01 3.196114e-01 3.614947e-03
    outer loop
      vertex   -2.115233e+01 3.338394e+02 1.625000e+03
      vertex   -2.407004e+01 3.250989e+02 1.633000e+03
      vertex   -1.976775e+01 3.378538e+02 1.633000e+03
    endloop
  endfacet
  facet normal -9.432172e-01 3.321591e-01 -3.429854e-03
    outer loop
      vertex   -2.115233e+01 3.338394e+02 1.625000e+03
      vertex   -1.976775e+01 3.378538e+02 1.633000e+03
      vertex   -1.683786e+01 3.460910e+02 1.625000e+03
    endloop
  endfacet
  facet normal -9.409944e-01 3.384007e-01 3.810942e-03
    outer loop
      vertex   -1.683786e+01 3.460910e+02 1.625000e+03
      vertex   -1.976775e+01 3.378538e+02 1.633000e+03
      vertex   -1.521254e+01 3.505205e+02 1.633000e+03
    endloop
  endfacet
  facet normal -9.366655e-01 3.502067e-01 -3.605284e-03
    outer loop
      vertex   -1.683786e+01 3.460910e+02 1.625000e+03
      vertex   -1.521254e+01 3.505205e+02 1.633000e+03
      vertex   -1.228896e+01 3.582576e+02 1.625000e+03
    endloop
  endfacet
  facet normal -9.340746e-01 3.570560e-01 3.965805e-03
    outer loop
      vertex   -1.228896e+01 3.582576e+02 1.625000e+03
      vertex   -1.521254e+01 3.505205e+02 1.633000e+03
      vertex   -1.040621e+01 3.630941e+02 1.633000e+03
    endloop
  endfacet
  facet normal -9.297687e-01 3.681252e-01 -3.739580e-03
    outer loop
      vertex   -1.228896e+01 3.582576e+02 1.625000e+03
      vertex   -1.040621e+01 3.630941e+02 1.633000e+03
      vertex   -7.507316e+00 3.703345e+02 1.625000e+03
    endloop
  endfacet
  facet normal -9.267851e-01 3.755700e-01 4.079535e-03
    outer loop
      vertex   -7.507316e+00 3.703345e+02 1.625000e+03
      vertex   -1.040621e+01 3.630941e+02 1.633000e+03
      vertex   -5.350656e+00 3.755695e+02 1.633000e+03
    endloop
  endfacet
  facet normal -9.225293e-01 3.859080e-01 -3.832745e-03
    outer loop
      vertex   -7.507316e+00 3.703345e+02 1.625000e+03
      vertex   -5.350656e+00 3.755695e+02 1.633000e+03
      vertex   -2.494682e+00 3.823174e+02 1.625000e+03
    endloop
  endfacet
  facet normal -9.191288e-01 3.939353e-01 4.152133e-03
    outer loop
      vertex   -2.494682e+00 3.823174e+02 1.625000e+03
      vertex   -5.350656e+00 3.755695e+02 1.633000e+03
      vertex   -4.788721e-02 3.879419e+02 1.633000e+03
    endloop
  endfacet
  facet normal -9.169898e-01 3.989106e-01 0.000000e+00
    outer loop
      vertex   -2.494682e+00 3.823174e+02 1.625000e+03
      vertex   -4.788721e-02 3.879419e+02 1.633000e+03
      vertex   -2.494682e+00 3.823174e+02 1.607000e+03
    endloop
  endfacet
  facet normal -9.168725e-01 3.991802e-01 -6.937681e-05
    outer loop
      vertex   -2.494682e+00 3.823174e+02 1.607000e+03
      vertex   -4.788721e-02 3.879419e+02 1.633000e+03
      vertex   1.125977e-01 3.883060e+02 1.607000e+03
    endloop
  endfacet
  facet normal -9.129758e-01 4.080137e-01 7.837776e-05
    outer loop
      vertex   1.125977e-01 3.883060e+02 1.607000e+03
      vertex   -4.788721e-02 3.879419e+02 1.633000e+03
      vertex   2.777575e+00 3.942692e+02 1.607000e+03
    endloop
  endfacet
  facet normal -9.111160e-01 4.121480e-01 1.286590e-03
    outer loop
      vertex   2.777575e+00 3.942692e+02 1.607000e+03
      vertex   -4.788721e-02 3.879419e+02 1.633000e+03
      vertex   5.500000e+00 4.002064e+02 1.633000e+03
    endloop
  endfacet
  facet normal -9.089940e-01 4.168092e-01 0.000000e+00
    outer loop
      vertex   2.777575e+00 3.942692e+02 1.607000e+03
      vertex   5.500000e+00 4.002064e+02 1.633000e+03
      vertex   5.500000e+00 4.002064e+02 1.607000e+03
    endloop
  endfacet
  facet normal 0.000000e+00 -1.000000e+00 0.000000e+00
    outer loop
      vertex   -3.000000e+01 2.740000e+02 1.625000e+03
      vertex   -7.000000e+00 2.740000e+02 1.625000e+03
      vertex   -3.000000e+01 2.740000e+02 1.633000e+03
    endloop
  endfacet
  facet normal 0.000000e+00 -1.000000e+00 0.000000e+00
    outer loop
      vertex   -3.000000e+01 2.740000e+02 1.633000e+03
      vertex   -7.000000e+00 2.740000e+02 1.625000e+03
      vertex   -7.000000e+00 2.740000e+02 1.633000e+03
    endloop
  endfacet
  facet normal 1.000000e+00 0.000000e+00 0.000000e+00
    outer loop
      vertex   -3.000000e+01 2.400000e+02 1.625000e+03
      vertex   -3.000000e+01 2.740000e+02 1.625000e+03
      vertex   -3.000000e+01 2.400000e+02 1.633000e+03
    endloop
  endfacet
  facet normal 1.000000e+00 -0.000000e+00 0.000000e+00
    outer loop
      vertex   -3.000000e+01 2.400000e+02 1.633000e+03
      vertex   -3.000000e+01 2.740000e+02 1.625000e+03
      vertex   -3.000000e+01 2.740000e+02 1.633000e+03
    endloop
  endfacet
  facet normal 0.000000e+00 1.000000e+00 -0.000000e+00
    outer loop
      vertex   -7.000000e+00 2.400000e+02 1.625000e+03
      vertex   -3.000000e+01 2.400000e+02 1.625000e+03
      vertex   -7.000000e+00 2.400000e+02 1.633000e+03
    endloop
  endfacet
  facet normal 0.000000e+00 1.000000e+00 0.000000e+00
    outer loop
      vertex   -7.000000e+00 2.400000e+02 1.633000e+03
      vertex   -3.000000e+01 2.400000e+02 1.625000e+03
      vertex   -3.000000e+01 2.400000e+02 1.633000e+03
    endloop
  endfacet
  facet normal -1.000000e+00 0.000000e+00 0.000000e+00
    outer loop
      vertex   -7.000000e+00 2.740000e+02 1.625000e+03
      vertex   -7.000000e+00 2.400000e+02 1.625000e+03
      vertex   -7.000000e+00 2.740000e+02 1.633000e+03
    endloop
  endfacet
  facet normal -1.000000e+00 -0.000000e+00 0.000000e+00
    outer loop
      vertex   -7.000000e+00 2.740000e+02 1.633000e+03
      vertex   -7.000000e+00 2.400000e+02 1.625000e+03
      vertex   -7.000000e+00 2.400000e+02 1.633000e+03
    endloop
  endfacet
  facet normal -0.000000e+00 -1.000000e+00 -0.000000e+00
    outer loop
      vertex   -2.000000e+01 2.205000e+02 1.633000e+03
      vertex   -4.919992e+01 2.205000e+02 1.633000e+03
      vertex   -2.000000e+01 2.205000e+02 1.625000e+03
    endloop
  endfacet
  facet normal 0.000000e+00 -1.000000e+00 0.000000e+00
    outer loop
      vertex   -2.000000e+01 2.205000e+02 1.625000e+03
      vertex   -4.919992e+01 2.205000e+02 1.633000e+03
      vertex   -4.919992e+01 2.205000e+02 1.625000e+03
    endloop
  endfacet
  facet normal -0.000000e+00 0.000000e+00 -1.000000e+00
    outer loop
      vertex   -7.000000e+00 2.400000e+02 1.625000e+03
      vertex   -2.000000e+01 2.205000e+02 1.625000e+03
      vertex   -3.000000e+01 2.400000e+02 1.625000e+03
    endloop
  endfacet
  facet normal 0.000000e+00 -0.000000e+00 -1.000000e+00
    outer loop
      vertex   -3.000000e+01 2.400000e+02 1.625000e+03
      vertex   -2.000000e+01 2.205000e+02 1.625000e+03
      vertex   -4.919992e+01 2.205000e+02 1.625000e+03
    endloop
  endfacet
  facet normal 0.000000e+00 0.000000e+00 -1.000000e+00
    outer loop
      vertex   -3.000000e+01 2.400000e+02 1.625000e+03
      vertex   -4.919992e+01 2.205000e+02 1.625000e+03
      vertex   -4.705631e+01 2.333110e+02 1.625000e+03
    endloop
  endfacet
  facet normal 0.000000e+00 0.000000e+00 -1.000000e+00
    outer loop
      vertex   -2.000000e+01 2.205000e+02 1.625000e+03
      vertex   -7.000000e+00 2.400000e+02 1.625000e+03
      vertex   -2.494682e+00 1.943819e+02 1.625000e+03
    endloop
  endfacet
  facet normal 0.000000e+00 0.000000e+00 -1.000000e+00
    outer loop
      vertex   -2.494682e+00 1.943819e+02 1.625000e+03
      vertex   -7.000000e+00 2.400000e+02 1.625000e+03
      vertex   -7.000000e+00 2.740000e+02 1.625000e+03
    endloop
  endfacet
  facet normal 0.000000e+00 0.000000e+00 -1.000000e+00
    outer loop
      vertex   -2.494682e+00 1.943819e+02 1.625000e+03
      vertex   -7.000000e+00 2.740000e+02 1.625000e+03
      vertex   -2.494682e+00 3.823174e+02 1.625000e+03
    endloop
  endfacet
  facet normal 0.000000e+00 0.000000e+00 -1.000000e+00
    outer loop
      vertex   -2.494682e+00 3.823174e+02 1.625000e+03
      vertex   -7.000000e+00 2.740000e+02 1.625000e+03
      vertex   -7.507316e+00 3.703345e+02 1.625000e+03
    endloop
  endfacet
  facet normal 0.000000e+00 -0.000000e+00 -1.000000e+00
    outer loop
      vertex   -7.507316e+00 3.703345e+02 1.625000e+03
      vertex   -7.000000e+00 2.740000e+02 1.625000e+03
      vertex   -1.228896e+01 3.582576e+02 1.625000e+03
    endloop
  endfacet
  facet normal 0.000000e+00 -0.000000e+00 -1.000000e+00
    outer loop
      vertex   -1.228896e+01 3.582576e+02 1.625000e+03
      vertex   -7.000000e+00 2.740000e+02 1.625000e+03
      vertex   -1.683786e+01 3.460910e+02 1.625000e+03
    endloop
  endfacet
  facet normal 0.000000e+00 -0.000000e+00 -1.000000e+00
    outer loop
      vertex   -1.683786e+01 3.460910e+02 1.625000e+03
      vertex   -7.000000e+00 2.740000e+02 1.625000e+03
      vertex   -2.115233e+01 3.338394e+02 1.625000e+03
    endloop
  endfacet
  facet normal 0.000000e+00 -0.000000e+00 -1.000000e+00
    outer loop
      vertex   -2.115233e+01 3.338394e+02 1.625000e+03
      vertex   -7.000000e+00 2.740000e+02 1.625000e+03
      vertex   -2.523079e+01 3.215072e+02 1.625000e+03
    endloop
  endfacet
  facet normal 0.000000e+00 -0.000000e+00 -1.000000e+00
    outer loop
      vertex   -2.523079e+01 3.215072e+02 1.625000e+03
      vertex   -7.000000e+00 2.740000e+02 1.625000e+03
      vertex   -3.000000e+01 2.740000e+02 1.625000e+03
    endloop
  endfacet
  facet normal 0.000000e+00 0.000000e+00 -1.000000e+00
    outer loop
      vertex   -2.523079e+01 3.215072e+02 1.625000e+03
      vertex   -3.000000e+01 2.740000e+02 1.625000e+03
      vertex   -2.907172e+01 3.090990e+02 1.625000e+03
    endloop
  endfacet
  facet normal 0.000000e+00 0.000000e+00 -1.000000e+00
    outer loop
      vertex   -2.907172e+01 3.090990e+02 1.625000e+03
      vertex   -3.000000e+01 2.740000e+02 1.625000e+03
      vertex   -3.267372e+01 2.966194e+02 1.625000e+03
    endloop
  endfacet
  facet normal 0.000000e+00 -0.000000e+00 -1.000000e+00
    outer loop
      vertex   -3.267372e+01 2.966194e+02 1.625000e+03
      vertex   -3.000000e+01 2.740000e+02 1.625000e+03
      vertex   -3.603545e+01 2.840728e+02 1.625000e+03
    endloop
  endfacet
  facet normal 0.000000e+00 -0.000000e+00 -1.000000e+00
    outer loop
      vertex   -3.603545e+01 2.840728e+02 1.625000e+03
      vertex   -3.000000e+01 2.740000e+02 1.625000e+03
      vertex   -3.915569e+01 2.714641e+02 1.625000e+03
    endloop
  endfacet
  facet normal 0.000000e+00 0.000000e+00 -1.000000e+00
    outer loop
      vertex   -3.915569e+01 2.714641e+02 1.625000e+03
      vertex   -3.000000e+01 2.740000e+02 1.625000e+03
      vertex   -3.000000e+01 2.400000e+02 1.625000e+03
    endloop
  endfacet
  facet normal 0.000000e+00 -0.000000e+00 -1.000000e+00
    outer loop
      vertex   -3.915569e+01 2.714641e+02 1.625000e+03
      vertex   -3.000000e+01 2.400000e+02 1.625000e+03
      vertex   -4.203326e+01 2.587977e+02 1.625000e+03
    endloop
  endfacet
  facet normal 0.000000e+00 -0.000000e+00 -1.000000e+00
    outer loop
      vertex   -4.203326e+01 2.587977e+02 1.625000e+03
      vertex   -3.000000e+01 2.400000e+02 1.625000e+03
      vertex   -4.466713e+01 2.460785e+02 1.625000e+03
    endloop
  endfacet
  facet normal 0.000000e+00 -0.000000e+00 -1.000000e+00
    outer loop
      vertex   -4.466713e+01 2.460785e+02 1.625000e+03
      vertex   -3.000000e+01 2.400000e+02 1.625000e+03
      vertex   -4.705631e+01 2.333110e+02 1.625000e+03
    endloop
  endfacet
  facet normal 0.000000e+00 0.000000e+00 -1.000000e+00
    outer loop
      vertex   -2.494682e+00 1.943819e+02 1.625000e+03
      vertex   -2.000000e+01 1.943819e+02 1.625000e+03
      vertex   -2.000000e+01 2.205000e+02 1.625000e+03
    endloop
  endfacet
  facet normal -1.000000e+00 -2.379914e-16 3.133217e-17
    outer loop
      vertex   -2.494682e+00 2.124501e+02 1.620505e+03
      vertex   -2.494682e+00 2.123819e+02 1.619988e+03
      vertex   -2.494682e+00 1.943819e+02 1.625000e+03
    endloop
  endfacet
  facet normal -1.000000e+00 -2.561051e-16 -3.371687e-17
    outer loop
      vertex   -2.494682e+00 1.943819e+02 1.625000e+03
      vertex   -2.494682e+00 2.123819e+02 1.619988e+03
      vertex   -2.494682e+00 2.124501e+02 1.619470e+03
    endloop
  endfacet
  facet normal -1.000000e+00 -2.814686e-16 -1.165881e-16
    outer loop
      vertex   -2.494682e+00 1.943819e+02 1.625000e+03
      vertex   -2.494682e+00 2.124501e+02 1.619470e+03
      vertex   -2.494682e+00 2.126499e+02 1.618988e+03
    endloop
  endfacet
  facet normal -1.000000e+00 -3.252316e-16 -2.495590e-16
    outer loop
      vertex   -2.494682e+00 2.126499e+02 1.618988e+03
      vertex   -2.494682e+00 2.129677e+02 1.618574e+03
      vertex   -2.494682e+00 1.943819e+02 1.625000e+03
    endloop
  endfacet
  facet normal -1.000000e+00 -2.389402e-16 -0.000000e+00
    outer loop
      vertex   -2.494682e+00 1.943819e+02 1.625000e+03
      vertex   -2.494682e+00 2.129677e+02 1.618574e+03
      vertex   -2.494682e+00 1.943819e+02 1.607000e+03
    endloop
  endfacet
  facet normal -1.000000e+00 -1.318999e-16 -1.718953e-16
    outer loop
      vertex   -2.494682e+00 1.943819e+02 1.607000e+03
      vertex   -2.494682e+00 2.129677e+02 1.618574e+03
      vertex   -2.494682e+00 2.133819e+02 1.618256e+03
    endloop
  endfacet
  facet normal -1.000000e+00 -9.617828e-17 -2.321949e-16
    outer loop
      vertex   -2.494682e+00 1.943819e+02 1.607000e+03
      vertex   -2.494682e+00 2.133819e+02 1.618256e+03
      vertex   -2.494682e+00 2.138643e+02 1.618056e+03
    endloop
  endfacet
  facet normal -1.000000e+00 -4.292381e-17 -3.260387e-16
    outer loop
      vertex   -2.494682e+00 2.138643e+02 1.618056e+03
      vertex   -2.494682e+00 2.143819e+02 1.617988e+03
      vertex   -2.494682e+00 1.943819e+02 1.607000e+03
    endloop
  endfacet
  facet normal -1.000000e+00 0.000000e+00 -4.041693e-16
    outer loop
      vertex   -2.494682e+00 1.943819e+02 1.607000e+03
      vertex   -2.494682e+00 2.143819e+02 1.617988e+03
      vertex   -2.494682e+00 3.543819e+02 1.617988e+03
    endloop
  endfacet
  facet normal -1.000000e+00 4.962274e-17 -1.126762e-15
    outer loop
      vertex   -2.494682e+00 1.943819e+02 1.607000e+03
      vertex   -2.494682e+00 3.543819e+02 1.617988e+03
      vertex   -2.494682e+00 3.823174e+02 1.607000e+03
    endloop
  endfacet
  facet normal -1.000000e+00 1.235847e-16 -9.387192e-16
    outer loop
      vertex   -2.494682e+00 3.823174e+02 1.607000e+03
      vertex   -2.494682e+00 3.543819e+02 1.617988e+03
      vertex   -2.494682e+00 3.548996e+02 1.618056e+03
    endloop
  endfacet
  facet normal -1.000000e+00 2.544264e-16 -6.142397e-16
    outer loop
      vertex   -2.494682e+00 3.823174e+02 1.607000e+03
      vertex   -2.494682e+00 3.548996e+02 1.618056e+03
      vertex   -2.494682e+00 3.553819e+02 1.618256e+03
    endloop
  endfacet
  facet normal -1.000000e+00 0.000000e+00 0.000000e+00
    outer loop
      vertex   -2.494682e+00 2.143819e+02 1.617988e+03
      vertex   -2.494682e+00 2.148996e+02 1.618056e+03
      vertex   -2.494682e+00 3.543819e+02 1.617988e+03
    endloop
  endfacet
  facet normal -1.000000e+00 0.000000e+00 0.000000e+00
    outer loop
      vertex   -2.494682e+00 3.543819e+02 1.617988e+03
      vertex   -2.494682e+00 2.148996e+02 1.618056e+03
      vertex   -2.494682e+00 3.538643e+02 1.618056e+03
    endloop
  endfacet
  facet normal -1.000000e+00 0.000000e+00 0.000000e+00
    outer loop
      vertex   -2.494682e+00 3.538643e+02 1.618056e+03
      vertex   -2.494682e+00 2.148996e+02 1.618056e+03
      vertex   -2.494682e+00 2.153819e+02 1.618256e+03
    endloop
  endfacet
  facet normal -1.000000e+00 0.000000e+00 0.000000e+00
    outer loop
      vertex   -2.494682e+00 3.538643e+02 1.618056e+03
      vertex   -2.494682e+00 2.153819e+02 1.618256e+03
      vertex   -2.494682e+00 3.533819e+02 1.618256e+03
    endloop
  endfacet
  facet normal -1.000000e+00 0.000000e+00 0.000000e+00
    outer loop
      vertex   -2.494682e+00 3.533819e+02 1.618256e+03
      vertex   -2.494682e+00 2.153819e+02 1.618256e+03
      vertex   -2.494682e+00 3.529677e+02 1.618574e+03
    endloop
  endfacet
  facet normal -1.000000e+00 -0.000000e+00 0.000000e+00
    outer loop
      vertex   -2.494682e+00 3.529677e+02 1.618574e+03
      vertex   -2.494682e+00 2.153819e+02 1.618256e+03
      vertex   -2.494682e+00 2.157961e+02 1.618574e+03
    endloop
  endfacet
  facet normal -1.000000e+00 0.000000e+00 0.000000e+00
    outer loop
      vertex   -2.494682e+00 3.529677e+02 1.618574e+03
      vertex   -2.494682e+00 2.157961e+02 1.618574e+03
      vertex   -2.494682e+00 3.526499e+02 1.618988e+03
    endloop
  endfacet
  facet normal -1.000000e+00 -0.000000e+00 0.000000e+00
    outer loop
      vertex   -2.494682e+00 3.526499e+02 1.618988e+03
      vertex   -2.494682e+00 2.157961e+02 1.618574e+03
      vertex   -2.494682e+00 2.161140e+02 1.618988e+03
    endloop
  endfacet
  facet normal -1.000000e+00 0.000000e+00 0.000000e+00
    outer loop
      vertex   -2.494682e+00 3.526499e+02 1.618988e+03
      vertex   -2.494682e+00 2.161140e+02 1.618988e+03
      vertex   -2.494682e+00 3.524501e+02 1.619470e+03
    endloop
  endfacet
  facet normal -1.000000e+00 -0.000000e+00 0.000000e+00
    outer loop
      vertex   -2.494682e+00 3.524501e+02 1.619470e+03
      vertex   -2.494682e+00 2.161140e+02 1.618988e+03
      vertex   -2.494682e+00 2.163138e+02 1.619470e+03
    endloop
  endfacet
  facet normal -1.000000e+00 0.000000e+00 0.000000e+00
    outer loop
      vertex   -2.494682e+00 3.524501e+02 1.619470e+03
      vertex   -2.494682e+00 2.163138e+02 1.619470e+03
      vertex   -2.494682e+00 3.523819e+02 1.619988e+03
    endloop
  endfacet
  facet normal -1.000000e+00 -0.000000e+00 0.000000e+00
    outer loop
      vertex   -2.494682e+00 3.523819e+02 1.619988e+03
      vertex   -2.494682e+00 2.163138e+02 1.619470e+03
      vertex   -2.494682e+00 2.163819e+02 1.619988e+03
    endloop
  endfacet
  facet normal -1.000000e+00 0.000000e+00 0.000000e+00
    outer loop
      vertex   -2.494682e+00 3.523819e+02 1.619988e+03
      vertex   -2.494682e+00 2.163819e+02 1.619988e+03
      vertex   -2.494682e+00 2.163138e+02 1.620505e+03
    endloop
  endfacet
  facet normal -1.000000e+00 0.000000e+00 0.000000e+00
    outer loop
      vertex   -2.494682e+00 3.523819e+02 1.619988e+03
      vertex   -2.494682e+00 2.163138e+02 1.620505e+03
      vertex   -2.494682e+00 3.524501e+02 1.620505e+03
    endloop
  endfacet
  facet normal -1.000000e+00 0.000000e+00 0.000000e+00
    outer loop
      vertex   -2.494682e+00 3.524501e+02 1.620505e+03
      vertex   -2.494682e+00 2.163138e+02 1.620505e+03
      vertex   -2.494682e+00 2.161140e+02 1.620988e+03
    endloop
  endfacet
  facet normal -1.000000e+00 0.000000e+00 0.000000e+00
    outer loop
      vertex   -2.494682e+00 3.524501e+02 1.620505e+03
      vertex   -2.494682e+00 2.161140e+02 1.620988e+03
      vertex   -2.494682e+00 3.526499e+02 1.620988e+03
    endloop
  endfacet
  facet normal -1.000000e+00 0.000000e+00 0.000000e+00
    outer loop
      vertex   -2.494682e+00 3.526499e+02 1.620988e+03
      vertex   -2.494682e+00 2.161140e+02 1.620988e+03
      vertex   -2.494682e+00 2.157961e+02 1.621402e+03
    endloop
  endfacet
  facet normal -1.000000e+00 0.000000e+00 0.000000e+00
    outer loop
      vertex   -2.494682e+00 3.526499e+02 1.620988e+03
      vertex   -2.494682e+00 2.157961e+02 1.621402e+03
      vertex   -2.494682e+00 3.529677e+02 1.621402e+03
    endloop
  endfacet
  facet normal -1.000000e+00 0.000000e+00 0.000000e+00
    outer loop
      vertex   -2.494682e+00 3.529677e+02 1.621402e+03
      vertex   -2.494682e+00 2.157961e+02 1.621402e+03
      vertex   -2.494682e+00 2.153819e+02 1.621720e+03
    endloop
  endfacet
  facet normal -1.000000e+00 0.000000e+00 0.000000e+00
    outer loop
      vertex   -2.494682e+00 3.529677e+02 1.621402e+03
      vertex   -2.494682e+00 2.153819e+02 1.621720e+03
      vertex   -2.494682e+00 3.533819e+02 1.621720e+03
    endloop
  endfacet
  facet normal -1.000000e+00 0.000000e+00 0.000000e+00
    outer loop
      vertex   -2.494682e+00 3.533819e+02 1.621720e+03
      vertex   -2.494682e+00 2.153819e+02 1.621720e+03
      vertex   -2.494682e+00 2.148996e+02 1.621920e+03
    endloop
  endfacet
  facet normal -1.000000e+00 0.000000e+00 0.000000e+00
    outer loop
      vertex   -2.494682e+00 3.533819e+02 1.621720e+03
      vertex   -2.494682e+00 2.148996e+02 1.621920e+03
      vertex   -2.494682e+00 3.538643e+02 1.621920e+03
    endloop
  endfacet
  facet normal -1.000000e+00 0.000000e+00 0.000000e+00
    outer loop
      vertex   -2.494682e+00 3.538643e+02 1.621920e+03
      vertex   -2.494682e+00 2.148996e+02 1.621920e+03
      vertex   -2.494682e+00 3.543819e+02 1.621988e+03
    endloop
  endfacet
  facet normal -1.000000e+00 -0.000000e+00 0.000000e+00
    outer loop
      vertex   -2.494682e+00 3.543819e+02 1.621988e+03
      vertex   -2.494682e+00 2.148996e+02 1.621920e+03
      vertex   -2.494682e+00 2.143819e+02 1.621988e+03
    endloop
  endfacet
  facet normal -1.000000e+00 0.000000e+00 1.474254e-15
    outer loop
      vertex   -2.494682e+00 3.543819e+02 1.621988e+03
      vertex   -2.494682e+00 2.143819e+02 1.621988e+03
      vertex   -2.494682e+00 1.943819e+02 1.625000e+03
    endloop
  endfacet
  facet normal -1.000000e+00 -1.035640e-16 7.866463e-16
    outer loop
      vertex   -2.494682e+00 1.943819e+02 1.625000e+03
      vertex   -2.494682e+00 2.143819e+02 1.621988e+03
      vertex   -2.494682e+00 2.138643e+02 1.621920e+03
    endloop
  endfacet
  facet normal -1.000000e+00 -1.649711e-16 3.982754e-16
    outer loop
      vertex   -2.494682e+00 1.943819e+02 1.625000e+03
      vertex   -2.494682e+00 2.138643e+02 1.621920e+03
      vertex   -2.494682e+00 2.133819e+02 1.621720e+03
    endloop
  endfacet
  facet normal -1.000000e+00 -1.908018e-16 2.486577e-16
    outer loop
      vertex   -2.494682e+00 2.133819e+02 1.621720e+03
      vertex   -2.494682e+00 2.129677e+02 1.621402e+03
      vertex   -2.494682e+00 1.943819e+02 1.625000e+03
    endloop
  endfacet
  facet normal -1.000000e+00 -2.080365e-16 1.596320e-16
    outer loop
      vertex   -2.494682e+00 1.943819e+02 1.625000e+03
      vertex   -2.494682e+00 2.129677e+02 1.621402e+03
      vertex   -2.494682e+00 2.126499e+02 1.620988e+03
    endloop
  endfacet
  facet normal -1.000000e+00 -2.228256e-16 9.229740e-17
    outer loop
      vertex   -2.494682e+00 1.943819e+02 1.625000e+03
      vertex   -2.494682e+00 2.126499e+02 1.620988e+03
      vertex   -2.494682e+00 2.124501e+02 1.620505e+03
    endloop
  endfacet
  facet normal -1.000000e+00 5.111016e-16 0.000000e+00
    outer loop
      vertex   -2.494682e+00 3.823174e+02 1.607000e+03
      vertex   -2.494682e+00 3.553819e+02 1.618256e+03
      vertex   -2.494682e+00 3.823174e+02 1.625000e+03
    endloop
  endfacet
  facet normal -1.000000e+00 7.586637e-16 -9.887097e-16
    outer loop
      vertex   -2.494682e+00 3.823174e+02 1.625000e+03
      vertex   -2.494682e+00 3.553819e+02 1.618256e+03
      vertex   -2.494682e+00 3.557961e+02 1.618574e+03
    endloop
  endfacet
  facet normal -1.000000e+00 6.376446e-16 -4.892819e-16
    outer loop
      vertex   -2.494682e+00 3.823174e+02 1.625000e+03
      vertex   -2.494682e+00 3.557961e+02 1.618574e+03
      vertex   -2.494682e+00 3.561140e+02 1.618988e+03
    endloop
  endfacet
  facet normal -1.000000e+00 5.805565e-16 -2.404744e-16
    outer loop
      vertex   -2.494682e+00 3.561140e+02 1.618988e+03
      vertex   -2.494682e+00 3.563138e+02 1.619470e+03
      vertex   -2.494682e+00 3.823174e+02 1.625000e+03
    endloop
  endfacet
  facet normal -1.000000e+00 5.446663e-16 -7.170668e-17
    outer loop
      vertex   -2.494682e+00 3.823174e+02 1.625000e+03
      vertex   -2.494682e+00 3.563138e+02 1.619470e+03
      vertex   -2.494682e+00 3.563819e+02 1.619988e+03
    endloop
  endfacet
  facet normal -1.000000e+00 5.176379e-16 6.814832e-17
    outer loop
      vertex   -2.494682e+00 3.823174e+02 1.625000e+03
      vertex   -2.494682e+00 3.563819e+02 1.619988e+03
      vertex   -2.494682e+00 3.563138e+02 1.620505e+03
    endloop
  endfacet
  facet normal -1.000000e+00 4.940456e-16 2.046404e-16
    outer loop
      vertex   -2.494682e+00 3.563138e+02 1.620505e+03
      vertex   -2.494682e+00 3.561140e+02 1.620988e+03
      vertex   -2.494682e+00 3.823174e+02 1.625000e+03
    endloop
  endfacet
  facet normal -1.000000e+00 4.701415e-16 3.607523e-16
    outer loop
      vertex   -2.494682e+00 3.823174e+02 1.625000e+03
      vertex   -2.494682e+00 3.561140e+02 1.620988e+03
      vertex   -2.494682e+00 3.557961e+02 1.621402e+03
    endloop
  endfacet
  facet normal -1.000000e+00 4.410957e-16 5.748472e-16
    outer loop
      vertex   -2.494682e+00 3.823174e+02 1.625000e+03
      vertex   -2.494682e+00 3.557961e+02 1.621402e+03
      vertex   -2.494682e+00 3.553819e+02 1.621720e+03
    endloop
  endfacet
  facet normal -1.000000e+00 3.949759e-16 9.535563e-16
    outer loop
      vertex   -2.494682e+00 3.553819e+02 1.621720e+03
      vertex   -2.494682e+00 3.548996e+02 1.621920e+03
      vertex   -2.494682e+00 3.823174e+02 1.625000e+03
    endloop
  endfacet
  facet normal -1.000000e+00 2.709132e-16 2.057790e-15
    outer loop
      vertex   -2.494682e+00 3.823174e+02 1.625000e+03
      vertex   -2.494682e+00 3.548996e+02 1.621920e+03
      vertex   -2.494682e+00 3.543819e+02 1.621988e+03
    endloop
  endfacet
  facet normal -1.000000e+00 4.962274e-17 4.109996e-15
    outer loop
      vertex   -2.494682e+00 3.823174e+02 1.625000e+03
      vertex   -2.494682e+00 3.543819e+02 1.621988e+03
      vertex   -2.494682e+00 1.943819e+02 1.625000e+03
    endloop
  endfacet
  facet normal -0.000000e+00 0.000000e+00 1.000000e+00
    outer loop
      vertex   -3.000000e+01 2.400000e+02 1.633000e+03
      vertex   -2.000000e+01 2.205000e+02 1.633000e+03
      vertex   -7.000000e+00 2.400000e+02 1.633000e+03
    endloop
  endfacet
  facet normal 0.000000e+00 0.000000e+00 1.000000e+00
    outer loop
      vertex   -7.000000e+00 2.400000e+02 1.633000e+03
      vertex   -2.000000e+01 2.205000e+02 1.633000e+03
      vertex   -2.000000e+01 1.943819e+02 1.633000e+03
    endloop
  endfacet
  facet normal 0.000000e+00 0.000000e+00 1.000000e+00
    outer loop
      vertex   -7.000000e+00 2.400000e+02 1.633000e+03
      vertex   -2.000000e+01 1.943819e+02 1.633000e+03
      vertex   5.500000e+00 1.943819e+02 1.633000e+03
    endloop
  endfacet
  facet normal 0.000000e+00 0.000000e+00 1.000000e+00
    outer loop
      vertex   -3.000000e+01 2.740000e+02 1.633000e+03
      vertex   -3.871737e+01 2.732998e+02 1.633000e+03
      vertex   -3.000000e+01 2.400000e+02 1.633000e+03
    endloop
  endfacet
  facet normal 0.000000e+00 0.000000e+00 1.000000e+00
    outer loop
      vertex   -3.000000e+01 2.400000e+02 1.633000e+03
      vertex   -3.871737e+01 2.732998e+02 1.633000e+03
      vertex   -4.173150e+01 2.601807e+02 1.633000e+03
    endloop
  endfacet
  facet normal 0.000000e+00 0.000000e+00 1.000000e+00
    outer loop
      vertex   -3.000000e+01 2.400000e+02 1.633000e+03
      vertex   -4.173150e+01 2.601807e+02 1.633000e+03
      vertex   -4.448401e+01 2.470042e+02 1.633000e+03
    endloop
  endfacet
  facet normal 0.000000e+00 0.000000e+00 1.000000e+00
    outer loop
      vertex   -7.000000e+00 2.740000e+02 1.633000e+03
      vertex   -2.811769e+01 3.122610e+02 1.633000e+03
      vertex   -3.000000e+01 2.740000e+02 1.633000e+03
    endloop
  endfacet
  facet normal 0.000000e+00 -0.000000e+00 1.000000e+00
    outer loop
      vertex   -3.000000e+01 2.740000e+02 1.633000e+03
      vertex   -2.811769e+01 3.122610e+02 1.633000e+03
      vertex   -3.190912e+01 2.993451e+02 1.633000e+03
    endloop
  endfacet
  facet normal 0.000000e+00 0.000000e+00 1.000000e+00
    outer loop
      vertex   -3.000000e+01 2.740000e+02 1.633000e+03
      vertex   -3.190912e+01 2.993451e+02 1.633000e+03
      vertex   -3.544281e+01 2.863563e+02 1.633000e+03
    endloop
  endfacet
  facet normal -0.000000e+00 0.000000e+00 1.000000e+00
    outer loop
      vertex   -7.000000e+00 2.400000e+02 1.633000e+03
      vertex   5.500000e+00 1.943819e+02 1.633000e+03
      vertex   -7.000000e+00 2.740000e+02 1.633000e+03
    endloop
  endfacet
  facet normal -0.000000e+00 0.000000e+00 1.000000e+00
    outer loop
      vertex   -7.000000e+00 2.740000e+02 1.633000e+03
      vertex   5.500000e+00 1.943819e+02 1.633000e+03
      vertex   5.500000e+00 4.002064e+02 1.633000e+03
    endloop
  endfacet
  facet normal 0.000000e+00 0.000000e+00 1.000000e+00
    outer loop
      vertex   -7.000000e+00 2.740000e+02 1.633000e+03
      vertex   5.500000e+00 4.002064e+02 1.633000e+03
      vertex   -4.788721e-02 3.879419e+02 1.633000e+03
    endloop
  endfacet
  facet normal 0.000000e+00 0.000000e+00 1.000000e+00
    outer loop
      vertex   -4.788721e-02 3.879419e+02 1.633000e+03
      vertex   -5.350656e+00 3.755695e+02 1.633000e+03
      vertex   -7.000000e+00 2.740000e+02 1.633000e+03
    endloop
  endfacet
  facet normal 0.000000e+00 -0.000000e+00 1.000000e+00
    outer loop
      vertex   -7.000000e+00 2.740000e+02 1.633000e+03
      vertex   -5.350656e+00 3.755695e+02 1.633000e+03
      vertex   -1.040621e+01 3.630941e+02 1.633000e+03
    endloop
  endfacet
  facet normal 0.000000e+00 0.000000e+00 1.000000e+00
    outer loop
      vertex   -7.000000e+00 2.740000e+02 1.633000e+03
      vertex   -1.040621e+01 3.630941e+02 1.633000e+03
      vertex   -1.521254e+01 3.505205e+02 1.633000e+03
    endloop
  endfacet
  facet normal 0.000000e+00 0.000000e+00 1.000000e+00
    outer loop
      vertex   -1.521254e+01 3.505205e+02 1.633000e+03
      vertex   -1.976775e+01 3.378538e+02 1.633000e+03
      vertex   -7.000000e+00 2.740000e+02 1.633000e+03
    endloop
  endfacet
  facet normal 0.000000e+00 0.000000e+00 1.000000e+00
    outer loop
      vertex   -7.000000e+00 2.740000e+02 1.633000e+03
      vertex   -1.976775e+01 3.378538e+02 1.633000e+03
      vertex   -2.407004e+01 3.250989e+02 1.633000e+03
    endloop
  endfacet
  facet normal 0.000000e+00 0.000000e+00 1.000000e+00
    outer loop
      vertex   -7.000000e+00 2.740000e+02 1.633000e+03
      vertex   -2.407004e+01 3.250989e+02 1.633000e+03
      vertex   -2.811769e+01 3.122610e+02 1.633000e+03
    endloop
  endfacet
  facet normal 0.000000e+00 0.000000e+00 1.000000e+00
    outer loop
      vertex   -3.544281e+01 2.863563e+02 1.633000e+03
      vertex   -3.871737e+01 2.732998e+02 1.633000e+03
      vertex   -3.000000e+01 2.740000e+02 1.633000e+03
    endloop
  endfacet
  facet normal 0.000000e+00 0.000000e+00 1.000000e+00
    outer loop
      vertex   -4.448401e+01 2.470042e+02 1.633000e+03
      vertex   -4.697381e+01 2.337756e+02 1.633000e+03
      vertex   -3.000000e+01 2.400000e+02 1.633000e+03
    endloop
  endfacet
  facet normal 0.000000e+00 0.000000e+00 1.000000e+00
    outer loop
      vertex   -3.000000e+01 2.400000e+02 1.633000e+03
      vertex   -4.697381e+01 2.337756e+02 1.633000e+03
      vertex   -4.919992e+01 2.205000e+02 1.633000e+03
    endloop
  endfacet
  facet normal 0.000000e+00 0.000000e+00 1.000000e+00
    outer loop
      vertex   -3.000000e+01 2.400000e+02 1.633000e+03
      vertex   -4.919992e+01 2.205000e+02 1.633000e+03
      vertex   -2.000000e+01 2.205000e+02 1.633000e+03
    endloop
  endfacet
  facet normal 0.000000e+00 -0.000000e+00 -1.000000e+00
    outer loop
      vertex   5.500000e+00 4.002064e+02 1.607000e+03
      vertex   5.500000e+00 1.943819e+02 1.607000e+03
      vertex   2.777575e+00 3.942692e+02 1.607000e+03
    endloop
  endfacet
  facet normal 0.000000e+00 -0.000000e+00 -1.000000e+00
    outer loop
      vertex   2.777575e+00 3.942692e+02 1.607000e+03
      vertex   5.500000e+00 1.943819e+02 1.607000e+03
      vertex   1.125977e-01 3.883060e+02 1.607000e+03
    endloop
  endfacet
  facet normal 0.000000e+00 -0.000000e+00 -1.000000e+00
    outer loop
      vertex   1.125977e-01 3.883060e+02 1.607000e+03
      vertex   5.500000e+00 1.943819e+02 1.607000e+03
      vertex   -2.494682e+00 1.943819e+02 1.607000e+03
    endloop
  endfacet
  facet normal 0.000000e+00 0.000000e+00 -1.000000e+00
    outer loop
      vertex   1.125977e-01 3.883060e+02 1.607000e+03
      vertex   -2.494682e+00 1.943819e+02 1.607000e+03
      vertex   -2.494682e+00 3.823174e+02 1.607000e+03
    endloop
  endfacet
  facet normal 0.000000e+00 -1.000000e+00 0.000000e+00
    outer loop
      vertex   -2.000000e+01 1.943819e+02 1.625000e+03
      vertex   -2.494682e+00 1.943819e+02 1.625000e+03
      vertex   -2.000000e+01 1.943819e+02 1.633000e+03
    endloop
  endfacet
  facet normal 0.000000e+00 -1.000000e+00 0.000000e+00
    outer loop
      vertex   -2.000000e+01 1.943819e+02 1.633000e+03
      vertex   -2.494682e+00 1.943819e+02 1.625000e+03
      vertex   5.500000e+00 1.943819e+02 1.633000e+03
    endloop
  endfacet
  facet normal 0.000000e+00 -1.000000e+00 -0.000000e+00
    outer loop
      vertex   5.500000e+00 1.943819e+02 1.633000e+03
      vertex   -2.494682e+00 1.943819e+02 1.625000e+03
      vertex   5.500000e+00 1.943819e+02 1.607000e+03
    endloop
  endfacet
  facet normal 0.000000e+00 -1.000000e+00 0.000000e+00
    outer loop
      vertex   5.500000e+00 1.943819e+02 1.607000e+03
      vertex   -2.494682e+00 1.943819e+02 1.625000e+03
      vertex   -2.494682e+00 1.943819e+02 1.607000e+03
    endloop
  endfacet
  facet normal -1.000000e+00 0.000000e+00 0.000000e+00
    outer loop
      vertex   -2.000000e+01 2.205000e+02 1.625000e+03
      vertex   -2.000000e+01 1.943819e+02 1.625000e+03
      vertex   -2.000000e+01 2.205000e+02 1.633000e+03
    endloop
  endfacet
  facet normal -1.000000e+00 -0.000000e+00 0.000000e+00
    outer loop
      vertex   -2.000000e+01 2.205000e+02 1.633000e+03
      vertex   -2.000000e+01 1.943819e+02 1.625000e+03
      vertex   -2.000000e+01 1.943819e+02 1.633000e+03
    endloop
  endfacet
  facet normal 1.000000e+00 0.000000e+00 0.000000e+00
    outer loop
      vertex   5.500000e+00 2.124501e+02 1.620505e+03
      vertex   5.500000e+00 1.943819e+02 1.633000e+03
      vertex   5.500000e+00 2.123819e+02 1.619988e+03
    endloop
  endfacet
  facet normal 1.000000e+00 0.000000e+00 0.000000e+00
    outer loop
      vertex   5.500000e+00 2.123819e+02 1.619988e+03
      vertex   5.500000e+00 1.943819e+02 1.633000e+03
      vertex   5.500000e+00 1.943819e+02 1.607000e+03
    endloop
  endfacet
  facet normal 1.000000e+00 0.000000e+00 0.000000e+00
    outer loop
      vertex   5.500000e+00 2.123819e+02 1.619988e+03
      vertex   5.500000e+00 1.943819e+02 1.607000e+03
      vertex   5.500000e+00 2.124501e+02 1.619470e+03
    endloop
  endfacet
  facet normal 1.000000e+00 0.000000e+00 0.000000e+00
    outer loop
      vertex   5.500000e+00 2.124501e+02 1.619470e+03
      vertex   5.500000e+00 1.943819e+02 1.607000e+03
      vertex   5.500000e+00 2.126499e+02 1.618988e+03
    endloop
  endfacet
  facet normal 1.000000e+00 0.000000e+00 0.000000e+00
    outer loop
      vertex   5.500000e+00 2.126499e+02 1.618988e+03
      vertex   5.500000e+00 1.943819e+02 1.607000e+03
      vertex   5.500000e+00 2.129677e+02 1.618574e+03
    endloop
  endfacet
  facet normal 1.000000e+00 0.000000e+00 0.000000e+00
    outer loop
      vertex   5.500000e+00 2.129677e+02 1.618574e+03
      vertex   5.500000e+00 1.943819e+02 1.607000e+03
      vertex   5.500000e+00 2.133819e+02 1.618256e+03
    endloop
  endfacet
  facet normal 1.000000e+00 0.000000e+00 0.000000e+00
    outer loop
      vertex   5.500000e+00 2.133819e+02 1.618256e+03
      vertex   5.500000e+00 1.943819e+02 1.607000e+03
      vertex   5.500000e+00 2.138643e+02 1.618056e+03
    endloop
  endfacet
  facet normal 1.000000e+00 0.000000e+00 0.000000e+00
    outer loop
      vertex   5.500000e+00 2.138643e+02 1.618056e+03
      vertex   5.500000e+00 1.943819e+02 1.607000e+03
      vertex   5.500000e+00 2.143819e+02 1.617988e+03
    endloop
  endfacet
  facet normal 1.000000e+00 -0.000000e+00 0.000000e+00
    outer loop
      vertex   5.500000e+00 2.143819e+02 1.617988e+03
      vertex   5.500000e+00 1.943819e+02 1.607000e+03
      vertex   5.500000e+00 2.148996e+02 1.618056e+03
    endloop
  endfacet
  facet normal 1.000000e+00 -0.000000e+00 0.000000e+00
    outer loop
      vertex   5.500000e+00 2.148996e+02 1.618056e+03
      vertex   5.500000e+00 1.943819e+02 1.607000e+03
      vertex   5.500000e+00 3.538643e+02 1.618056e+03
    endloop
  endfacet
  facet normal 1.000000e+00 0.000000e+00 0.000000e+00
    outer loop
      vertex   5.500000e+00 2.148996e+02 1.618056e+03
      vertex   5.500000e+00 3.538643e+02 1.618056e+03
      vertex   5.500000e+00 2.153819e+02 1.618256e+03
    endloop
  endfacet
  facet normal 1.000000e+00 -0.000000e+00 0.000000e+00
    outer loop
      vertex   5.500000e+00 2.153819e+02 1.618256e+03
      vertex   5.500000e+00 3.538643e+02 1.618056e+03
      vertex   5.500000e+00 3.533819e+02 1.618256e+03
    endloop
  endfacet
  facet normal 1.000000e+00 0.000000e+00 0.000000e+00
    outer loop
      vertex   5.500000e+00 2.153819e+02 1.618256e+03
      vertex   5.500000e+00 3.533819e+02 1.618256e+03
      vertex   5.500000e+00 2.157961e+02 1.618574e+03
    endloop
  endfacet
  facet normal 1.000000e+00 -0.000000e+00 0.000000e+00
    outer loop
      vertex   5.500000e+00 2.157961e+02 1.618574e+03
      vertex   5.500000e+00 3.533819e+02 1.618256e+03
      vertex   5.500000e+00 3.529677e+02 1.618574e+03
    endloop
  endfacet
  facet normal 1.000000e+00 0.000000e+00 0.000000e+00
    outer loop
      vertex   5.500000e+00 2.157961e+02 1.618574e+03
      vertex   5.500000e+00 3.529677e+02 1.618574e+03
      vertex   5.500000e+00 2.161140e+02 1.618988e+03
    endloop
  endfacet
  facet normal 1.000000e+00 -0.000000e+00 0.000000e+00
    outer loop
      vertex   5.500000e+00 2.161140e+02 1.618988e+03
      vertex   5.500000e+00 3.529677e+02 1.618574e+03
      vertex   5.500000e+00 3.526499e+02 1.618988e+03
    endloop
  endfacet
  facet normal 1.000000e+00 0.000000e+00 0.000000e+00
    outer loop
      vertex   5.500000e+00 2.161140e+02 1.618988e+03
      vertex   5.500000e+00 3.526499e+02 1.618988e+03
      vertex   5.500000e+00 2.163138e+02 1.619470e+03
    endloop
  endfacet
  facet normal 1.000000e+00 -0.000000e+00 0.000000e+00
    outer loop
      vertex   5.500000e+00 2.163138e+02 1.619470e+03
      vertex   5.500000e+00 3.526499e+02 1.618988e+03
      vertex   5.500000e+00 3.524501e+02 1.619470e+03
    endloop
  endfacet
  facet normal 1.000000e+00 0.000000e+00 0.000000e+00
    outer loop
      vertex   5.500000e+00 2.163138e+02 1.619470e+03
      vertex   5.500000e+00 3.524501e+02 1.619470e+03
      vertex   5.500000e+00 2.163819e+02 1.619988e+03
    endloop
  endfacet
  facet normal 1.000000e+00 -0.000000e+00 0.000000e+00
    outer loop
      vertex   5.500000e+00 2.163819e+02 1.619988e+03
      vertex   5.500000e+00 3.524501e+02 1.619470e+03
      vertex   5.500000e+00 3.523819e+02 1.619988e+03
    endloop
  endfacet
  facet normal 1.000000e+00 0.000000e+00 0.000000e+00
    outer loop
      vertex   5.500000e+00 2.163819e+02 1.619988e+03
      vertex   5.500000e+00 3.523819e+02 1.619988e+03
      vertex   5.500000e+00 3.524501e+02 1.620505e+03
    endloop
  endfacet
  facet normal 1.000000e+00 0.000000e+00 -0.000000e+00
    outer loop
      vertex   5.500000e+00 2.124501e+02 1.620505e+03
      vertex   5.500000e+00 2.126499e+02 1.620988e+03
      vertex   5.500000e+00 1.943819e+02 1.633000e+03
    endloop
  endfacet
  facet normal 1.000000e+00 0.000000e+00 0.000000e+00
    outer loop
      vertex   5.500000e+00 1.943819e+02 1.633000e+03
      vertex   5.500000e+00 2.126499e+02 1.620988e+03
      vertex   5.500000e+00 2.129677e+02 1.621402e+03
    endloop
  endfacet
  facet normal 1.000000e+00 0.000000e+00 0.000000e+00
    outer loop
      vertex   5.500000e+00 1.943819e+02 1.633000e+03
      vertex   5.500000e+00 2.129677e+02 1.621402e+03
      vertex   5.500000e+00 2.133819e+02 1.621720e+03
    endloop
  endfacet
  facet normal 1.000000e+00 0.000000e+00 -0.000000e+00
    outer loop
      vertex   5.500000e+00 2.133819e+02 1.621720e+03
      vertex   5.500000e+00 2.138643e+02 1.621920e+03
      vertex   5.500000e+00 1.943819e+02 1.633000e+03
    endloop
  endfacet
  facet normal 1.000000e+00 0.000000e+00 0.000000e+00
    outer loop
      vertex   5.500000e+00 1.943819e+02 1.633000e+03
      vertex   5.500000e+00 2.138643e+02 1.621920e+03
      vertex   5.500000e+00 2.143819e+02 1.621988e+03
    endloop
  endfacet
  facet normal 1.000000e+00 0.000000e+00 0.000000e+00
    outer loop
      vertex   5.500000e+00 1.943819e+02 1.633000e+03
      vertex   5.500000e+00 2.143819e+02 1.621988e+03
      vertex   5.500000e+00 2.148996e+02 1.621920e+03
    endloop
  endfacet
  facet normal 1.000000e+00 0.000000e+00 0.000000e+00
    outer loop
      vertex   5.500000e+00 1.943819e+02 1.633000e+03
      vertex   5.500000e+00 2.148996e+02 1.621920e+03
      vertex   5.500000e+00 3.538643e+02 1.621920e+03
    endloop
  endfacet
  facet normal 1.000000e+00 0.000000e+00 0.000000e+00
    outer loop
      vertex   5.500000e+00 3.538643e+02 1.621920e+03
      vertex   5.500000e+00 2.148996e+02 1.621920e+03
      vertex   5.500000e+00 2.153819e+02 1.621720e+03
    endloop
  endfacet
  facet normal 1.000000e+00 0.000000e+00 0.000000e+00
    outer loop
      vertex   5.500000e+00 3.538643e+02 1.621920e+03
      vertex   5.500000e+00 2.153819e+02 1.621720e+03
      vertex   5.500000e+00 3.533819e+02 1.621720e+03
    endloop
  endfacet
  facet normal 1.000000e+00 0.000000e+00 0.000000e+00
    outer loop
      vertex   5.500000e+00 3.533819e+02 1.621720e+03
      vertex   5.500000e+00 2.153819e+02 1.621720e+03
      vertex   5.500000e+00 2.157961e+02 1.621402e+03
    endloop
  endfacet
  facet normal 1.000000e+00 0.000000e+00 0.000000e+00
    outer loop
      vertex   5.500000e+00 3.533819e+02 1.621720e+03
      vertex   5.500000e+00 2.157961e+02 1.621402e+03
      vertex   5.500000e+00 3.529677e+02 1.621402e+03
    endloop
  endfacet
  facet normal 1.000000e+00 0.000000e+00 0.000000e+00
    outer loop
      vertex   5.500000e+00 3.529677e+02 1.621402e+03
      vertex   5.500000e+00 2.157961e+02 1.621402e+03
      vertex   5.500000e+00 2.161140e+02 1.620988e+03
    endloop
  endfacet
  facet normal 1.000000e+00 0.000000e+00 0.000000e+00
    outer loop
      vertex   5.500000e+00 3.529677e+02 1.621402e+03
      vertex   5.500000e+00 2.161140e+02 1.620988e+03
      vertex   5.500000e+00 3.526499e+02 1.620988e+03
    endloop
  endfacet
  facet normal 1.000000e+00 0.000000e+00 0.000000e+00
    outer loop
      vertex   5.500000e+00 3.526499e+02 1.620988e+03
      vertex   5.500000e+00 2.161140e+02 1.620988e+03
      vertex   5.500000e+00 2.163138e+02 1.620505e+03
    endloop
  endfacet
  facet normal 1.000000e+00 0.000000e+00 0.000000e+00
    outer loop
      vertex   5.500000e+00 3.526499e+02 1.620988e+03
      vertex   5.500000e+00 2.163138e+02 1.620505e+03
      vertex   5.500000e+00 3.524501e+02 1.620505e+03
    endloop
  endfacet
  facet normal 1.000000e+00 0.000000e+00 0.000000e+00
    outer loop
      vertex   5.500000e+00 3.524501e+02 1.620505e+03
      vertex   5.500000e+00 2.163138e+02 1.620505e+03
      vertex   5.500000e+00 2.163819e+02 1.619988e+03
    endloop
  endfacet
  facet normal 1.000000e+00 0.000000e+00 -0.000000e+00
    outer loop
      vertex   5.500000e+00 3.538643e+02 1.621920e+03
      vertex   5.500000e+00 3.543819e+02 1.621988e+03
      vertex   5.500000e+00 1.943819e+02 1.633000e+03
    endloop
  endfacet
  facet normal 1.000000e+00 -0.000000e+00 0.000000e+00
    outer loop
      vertex   5.500000e+00 1.943819e+02 1.633000e+03
      vertex   5.500000e+00 3.543819e+02 1.621988e+03
      vertex   5.500000e+00 4.002064e+02 1.633000e+03
    endloop
  endfacet
  facet normal 1.000000e+00 0.000000e+00 0.000000e+00
    outer loop
      vertex   5.500000e+00 4.002064e+02 1.633000e+03
      vertex   5.500000e+00 3.543819e+02 1.621988e+03
      vertex   5.500000e+00 3.548996e+02 1.621920e+03
    endloop
  endfacet
  facet normal 1.000000e+00 0.000000e+00 0.000000e+00
    outer loop
      vertex   5.500000e+00 4.002064e+02 1.633000e+03
      vertex   5.500000e+00 3.548996e+02 1.621920e+03
      vertex   5.500000e+00 3.553819e+02 1.621720e+03
    endloop
  endfacet
  facet normal 1.000000e+00 -0.000000e+00 0.000000e+00
    outer loop
      vertex   5.500000e+00 3.553819e+02 1.621720e+03
      vertex   5.500000e+00 3.557961e+02 1.621402e+03
      vertex   5.500000e+00 4.002064e+02 1.633000e+03
    endloop
  endfacet
  facet normal 1.000000e+00 0.000000e+00 0.000000e+00
    outer loop
      vertex   5.500000e+00 4.002064e+02 1.633000e+03
      vertex   5.500000e+00 3.557961e+02 1.621402e+03
      vertex   5.500000e+00 3.561140e+02 1.620988e+03
    endloop
  endfacet
  facet normal 1.000000e+00 0.000000e+00 0.000000e+00
    outer loop
      vertex   5.500000e+00 4.002064e+02 1.633000e+03
      vertex   5.500000e+00 3.561140e+02 1.620988e+03
      vertex   5.500000e+00 3.563138e+02 1.620505e+03
    endloop
  endfacet
  facet normal 1.000000e+00 -0.000000e+00 0.000000e+00
    outer loop
      vertex   5.500000e+00 3.563138e+02 1.620505e+03
      vertex   5.500000e+00 3.563819e+02 1.619988e+03
      vertex   5.500000e+00 4.002064e+02 1.633000e+03
    endloop
  endfacet
  facet normal 1.000000e+00 0.000000e+00 0.000000e+00
    outer loop
      vertex   5.500000e+00 4.002064e+02 1.633000e+03
      vertex   5.500000e+00 3.563819e+02 1.619988e+03
      vertex   5.500000e+00 4.002064e+02 1.607000e+03
    endloop
  endfacet
  facet normal 1.000000e+00 0.000000e+00 0.000000e+00
    outer loop
      vertex   5.500000e+00 4.002064e+02 1.607000e+03
      vertex   5.500000e+00 3.563819e+02 1.619988e+03
      vertex   5.500000e+00 3.563138e+02 1.619470e+03
    endloop
  endfacet
  facet normal 1.000000e+00 0.000000e+00 0.000000e+00
    outer loop
      vertex   5.500000e+00 4.002064e+02 1.607000e+03
      vertex   5.500000e+00 3.563138e+02 1.619470e+03
      vertex   5.500000e+00 3.561140e+02 1.618988e+03
    endloop
  endfacet
  facet normal 1.000000e+00 0.000000e+00 0.000000e+00
    outer loop
      vertex   5.500000e+00 3.561140e+02 1.618988e+03
      vertex   5.500000e+00 3.557961e+02 1.618574e+03
      vertex   5.500000e+00 4.002064e+02 1.607000e+03
    endloop
  endfacet
  facet normal 1.000000e+00 0.000000e+00 0.000000e+00
    outer loop
      vertex   5.500000e+00 4.002064e+02 1.607000e+03
      vertex   5.500000e+00 3.557961e+02 1.618574e+03
      vertex   5.500000e+00 3.553819e+02 1.618256e+03
    endloop
  endfacet
  facet normal 1.000000e+00 0.000000e+00 0.000000e+00
    outer loop
      vertex   5.500000e+00 4.002064e+02 1.607000e+03
      vertex   5.500000e+00 3.553819e+02 1.618256e+03
      vertex   5.500000e+00 3.548996e+02 1.618056e+03
    endloop
  endfacet
  facet normal 1.000000e+00 0.000000e+00 0.000000e+00
    outer loop
      vertex   5.500000e+00 3.548996e+02 1.618056e+03
      vertex   5.500000e+00 3.543819e+02 1.617988e+03
      vertex   5.500000e+00 4.002064e+02 1.607000e+03
    endloop
  endfacet
  facet normal 1.000000e+00 0.000000e+00 0.000000e+00
    outer loop
      vertex   5.500000e+00 4.002064e+02 1.607000e+03
      vertex   5.500000e+00 3.543819e+02 1.617988e+03
      vertex   5.500000e+00 1.943819e+02 1.607000e+03
    endloop
  endfacet
  facet normal 1.000000e+00 0.000000e+00 0.000000e+00
    outer loop
      vertex   5.500000e+00 1.943819e+02 1.607000e+03
      vertex   5.500000e+00 3.543819e+02 1.617988e+03
      vertex   5.500000e+00 3.538643e+02 1.618056e+03
    endloop
  endfacet
endsolid
